M48
; DRILL file {KiCad 9.0.2} date 2025-06-25T22:16:46-0400
; FORMAT={-:-/ absolute / metric / decimal}
; #@! TF.CreationDate,2025-06-25T22:16:46-04:00
; #@! TF.GenerationSoftware,Kicad,Pcbnew,9.0.2
; #@! TF.FileFunction,Plated,1,2,PTH
FMAT,2
METRIC
; #@! TA.AperFunction,Plated,PTH,ViaDrill
T1C0.300
; #@! TA.AperFunction,Plated,PTH,ComponentDrill
T2C0.800
; #@! TA.AperFunction,Plated,PTH,ComponentDrill
T3C0.889
; #@! TA.AperFunction,Plated,PTH,ComponentDrill
T4C1.000
; #@! TA.AperFunction,Plated,PTH,ComponentDrill
T5C1.500
%
G90
G05
T1
X171.45Y-73.819
T2
X87.987Y-67.975
X87.987Y-71.525
X87.987Y-75.075
X87.987Y-78.625
X87.987Y-82.175
X87.987Y-85.725
X87.987Y-89.275
X87.987Y-92.825
X95.608Y-67.975
X95.608Y-71.525
X95.608Y-75.075
X95.608Y-78.625
X95.608Y-82.175
X95.608Y-85.725
X95.608Y-89.275
X95.608Y-92.825
T3
X167.576Y-78.105
X167.576Y-93.345
X170.117Y-78.105
X170.117Y-93.345
X172.656Y-78.105
X172.656Y-93.345
X175.196Y-78.105
X175.196Y-93.345
X177.736Y-78.105
X177.736Y-93.345
X180.276Y-78.105
X180.276Y-93.345
X182.816Y-78.105
X182.816Y-93.345
T4
X166.706Y-64.175
X166.706Y-66.675
X166.706Y-69.175
X181.206Y-64.175
X181.206Y-69.175
T5
X100.529Y-66.675
X100.529Y-85.566
X106.879Y-64.135
X106.879Y-83.026
X117.347Y-66.675
X117.347Y-85.566
X123.697Y-64.135
X123.697Y-83.026
X134.184Y-66.675
X134.184Y-85.566
X140.534Y-64.135
X140.534Y-83.026
X151.505Y-66.675
X151.505Y-85.566
X157.855Y-64.135
X157.855Y-83.026
T5
G00X173.556Y-61.075
M15
G01X174.856Y-61.075
M16
G05
G00X173.556Y-72.275
M15
G01X174.856Y-72.275
M16
G05
M30
