M48
; DRILL file {KiCad 9.0.2} date 2025-06-25T22:16:46-0400
; FORMAT={-:-/ absolute / metric / decimal}
; #@! TF.CreationDate,2025-06-25T22:16:46-04:00
; #@! TF.GenerationSoftware,Kicad,Pcbnew,9.0.2
; #@! TF.FileFunction,NonPlated,1,2,NPTH
FMAT,2
METRIC
; #@! TA.AperFunction,NonPlated,NPTH,ComponentDrill
T1C1.700
; #@! TA.AperFunction,NonPlated,NPTH,ComponentDrill
T2C4.000
%
G90
G05
T1
X99.259Y-69.215
X99.259Y-88.106
X109.419Y-69.215
X109.419Y-88.106
X116.078Y-69.215
X116.078Y-88.106
X126.237Y-69.215
X126.237Y-88.106
X132.914Y-69.215
X132.914Y-88.106
X143.074Y-69.215
X143.074Y-88.106
X150.235Y-69.215
X150.235Y-88.106
X160.395Y-69.215
X160.395Y-88.106
T2
X104.339Y-69.215
X104.339Y-88.106
X121.157Y-69.215
X121.157Y-88.106
X137.994Y-69.215
X137.994Y-88.106
X155.315Y-69.215
X155.315Y-88.106
M30
