G04 #@! TF.GenerationSoftware,KiCad,Pcbnew,9.0.2*
G04 #@! TF.CreationDate,2025-06-25T22:16:46-04:00*
G04 #@! TF.ProjectId,Macropad,4d616372-6f70-4616-942e-6b696361645f,rev?*
G04 #@! TF.SameCoordinates,Original*
G04 #@! TF.FileFunction,Legend,Bot*
G04 #@! TF.FilePolarity,Positive*
%FSLAX46Y46*%
G04 Gerber Fmt 4.6, Leading zero omitted, Abs format (unit mm)*
G04 Created by KiCad (PCBNEW 9.0.2) date 2025-06-25 22:16:46*
%MOMM*%
%LPD*%
G01*
G04 APERTURE LIST*
G04 Aperture macros list*
%AMRoundRect*
0 Rectangle with rounded corners*
0 $1 Rounding radius*
0 $2 $3 $4 $5 $6 $7 $8 $9 X,Y pos of 4 corners*
0 Add a 4 corners polygon primitive as box body*
4,1,4,$2,$3,$4,$5,$6,$7,$8,$9,$2,$3,0*
0 Add four circle primitives for the rounded corners*
1,1,$1+$1,$2,$3*
1,1,$1+$1,$4,$5*
1,1,$1+$1,$6,$7*
1,1,$1+$1,$8,$9*
0 Add four rect primitives between the rounded corners*
20,1,$1+$1,$2,$3,$4,$5,0*
20,1,$1+$1,$4,$5,$6,$7,0*
20,1,$1+$1,$6,$7,$8,$9,0*
20,1,$1+$1,$8,$9,$2,$3,0*%
G04 Aperture macros list end*
%ADD10C,0.100000*%
%ADD11RoundRect,0.250000X-0.550000X-0.550000X0.550000X-0.550000X0.550000X0.550000X-0.550000X0.550000X0*%
%ADD12C,1.600000*%
%ADD13C,1.700000*%
%ADD14C,4.000000*%
%ADD15C,2.200000*%
%ADD16C,1.500000*%
%ADD17R,2.000000X2.000000*%
%ADD18C,2.000000*%
%ADD19R,3.200000X2.000000*%
%ADD20C,1.524000*%
G04 APERTURE END LIST*
D10*
X168812484Y-61737300D02*
X168669627Y-61784919D01*
X168669627Y-61784919D02*
X168431532Y-61784919D01*
X168431532Y-61784919D02*
X168336294Y-61737300D01*
X168336294Y-61737300D02*
X168288675Y-61689680D01*
X168288675Y-61689680D02*
X168241056Y-61594442D01*
X168241056Y-61594442D02*
X168241056Y-61499204D01*
X168241056Y-61499204D02*
X168288675Y-61403966D01*
X168288675Y-61403966D02*
X168336294Y-61356347D01*
X168336294Y-61356347D02*
X168431532Y-61308728D01*
X168431532Y-61308728D02*
X168622008Y-61261109D01*
X168622008Y-61261109D02*
X168717246Y-61213490D01*
X168717246Y-61213490D02*
X168764865Y-61165871D01*
X168764865Y-61165871D02*
X168812484Y-61070633D01*
X168812484Y-61070633D02*
X168812484Y-60975395D01*
X168812484Y-60975395D02*
X168764865Y-60880157D01*
X168764865Y-60880157D02*
X168717246Y-60832538D01*
X168717246Y-60832538D02*
X168622008Y-60784919D01*
X168622008Y-60784919D02*
X168383913Y-60784919D01*
X168383913Y-60784919D02*
X168241056Y-60832538D01*
X167812484Y-61118252D02*
X167812484Y-62118252D01*
X167812484Y-61165871D02*
X167717246Y-61118252D01*
X167717246Y-61118252D02*
X167526770Y-61118252D01*
X167526770Y-61118252D02*
X167431532Y-61165871D01*
X167431532Y-61165871D02*
X167383913Y-61213490D01*
X167383913Y-61213490D02*
X167336294Y-61308728D01*
X167336294Y-61308728D02*
X167336294Y-61594442D01*
X167336294Y-61594442D02*
X167383913Y-61689680D01*
X167383913Y-61689680D02*
X167431532Y-61737300D01*
X167431532Y-61737300D02*
X167526770Y-61784919D01*
X167526770Y-61784919D02*
X167717246Y-61784919D01*
X167717246Y-61784919D02*
X167812484Y-61737300D01*
X166764865Y-61784919D02*
X166860103Y-61737300D01*
X166860103Y-61737300D02*
X166907722Y-61689680D01*
X166907722Y-61689680D02*
X166955341Y-61594442D01*
X166955341Y-61594442D02*
X166955341Y-61308728D01*
X166955341Y-61308728D02*
X166907722Y-61213490D01*
X166907722Y-61213490D02*
X166860103Y-61165871D01*
X166860103Y-61165871D02*
X166764865Y-61118252D01*
X166764865Y-61118252D02*
X166622008Y-61118252D01*
X166622008Y-61118252D02*
X166526770Y-61165871D01*
X166526770Y-61165871D02*
X166479151Y-61213490D01*
X166479151Y-61213490D02*
X166431532Y-61308728D01*
X166431532Y-61308728D02*
X166431532Y-61594442D01*
X166431532Y-61594442D02*
X166479151Y-61689680D01*
X166479151Y-61689680D02*
X166526770Y-61737300D01*
X166526770Y-61737300D02*
X166622008Y-61784919D01*
X166622008Y-61784919D02*
X166764865Y-61784919D01*
X166002960Y-61784919D02*
X166002960Y-61118252D01*
X166002960Y-61308728D02*
X165955341Y-61213490D01*
X165955341Y-61213490D02*
X165907722Y-61165871D01*
X165907722Y-61165871D02*
X165812484Y-61118252D01*
X165812484Y-61118252D02*
X165717246Y-61118252D01*
X165526769Y-61118252D02*
X165145817Y-61118252D01*
X165383912Y-60784919D02*
X165383912Y-61642061D01*
X165383912Y-61642061D02*
X165336293Y-61737300D01*
X165336293Y-61737300D02*
X165241055Y-61784919D01*
X165241055Y-61784919D02*
X165145817Y-61784919D01*
X164860102Y-61737300D02*
X164764864Y-61784919D01*
X164764864Y-61784919D02*
X164574388Y-61784919D01*
X164574388Y-61784919D02*
X164479150Y-61737300D01*
X164479150Y-61737300D02*
X164431531Y-61642061D01*
X164431531Y-61642061D02*
X164431531Y-61594442D01*
X164431531Y-61594442D02*
X164479150Y-61499204D01*
X164479150Y-61499204D02*
X164574388Y-61451585D01*
X164574388Y-61451585D02*
X164717245Y-61451585D01*
X164717245Y-61451585D02*
X164812483Y-61403966D01*
X164812483Y-61403966D02*
X164860102Y-61308728D01*
X164860102Y-61308728D02*
X164860102Y-61261109D01*
X164860102Y-61261109D02*
X164812483Y-61165871D01*
X164812483Y-61165871D02*
X164717245Y-61118252D01*
X164717245Y-61118252D02*
X164574388Y-61118252D01*
X164574388Y-61118252D02*
X164479150Y-61165871D01*
X162812483Y-61784919D02*
X162812483Y-61261109D01*
X162812483Y-61261109D02*
X162860102Y-61165871D01*
X162860102Y-61165871D02*
X162955340Y-61118252D01*
X162955340Y-61118252D02*
X163145816Y-61118252D01*
X163145816Y-61118252D02*
X163241054Y-61165871D01*
X162812483Y-61737300D02*
X162907721Y-61784919D01*
X162907721Y-61784919D02*
X163145816Y-61784919D01*
X163145816Y-61784919D02*
X163241054Y-61737300D01*
X163241054Y-61737300D02*
X163288673Y-61642061D01*
X163288673Y-61642061D02*
X163288673Y-61546823D01*
X163288673Y-61546823D02*
X163241054Y-61451585D01*
X163241054Y-61451585D02*
X163145816Y-61403966D01*
X163145816Y-61403966D02*
X162907721Y-61403966D01*
X162907721Y-61403966D02*
X162812483Y-61356347D01*
X162336292Y-61118252D02*
X162336292Y-61784919D01*
X162336292Y-61213490D02*
X162288673Y-61165871D01*
X162288673Y-61165871D02*
X162193435Y-61118252D01*
X162193435Y-61118252D02*
X162050578Y-61118252D01*
X162050578Y-61118252D02*
X161955340Y-61165871D01*
X161955340Y-61165871D02*
X161907721Y-61261109D01*
X161907721Y-61261109D02*
X161907721Y-61784919D01*
X161002959Y-61784919D02*
X161002959Y-60784919D01*
X161002959Y-61737300D02*
X161098197Y-61784919D01*
X161098197Y-61784919D02*
X161288673Y-61784919D01*
X161288673Y-61784919D02*
X161383911Y-61737300D01*
X161383911Y-61737300D02*
X161431530Y-61689680D01*
X161431530Y-61689680D02*
X161479149Y-61594442D01*
X161479149Y-61594442D02*
X161479149Y-61308728D01*
X161479149Y-61308728D02*
X161431530Y-61213490D01*
X161431530Y-61213490D02*
X161383911Y-61165871D01*
X161383911Y-61165871D02*
X161288673Y-61118252D01*
X161288673Y-61118252D02*
X161098197Y-61118252D01*
X161098197Y-61118252D02*
X161002959Y-61165871D01*
X159431530Y-61261109D02*
X159764863Y-61261109D01*
X159764863Y-61784919D02*
X159764863Y-60784919D01*
X159764863Y-60784919D02*
X159288673Y-60784919D01*
X158907720Y-61784919D02*
X158907720Y-61118252D01*
X158907720Y-61308728D02*
X158860101Y-61213490D01*
X158860101Y-61213490D02*
X158812482Y-61165871D01*
X158812482Y-61165871D02*
X158717244Y-61118252D01*
X158717244Y-61118252D02*
X158622006Y-61118252D01*
X158288672Y-61784919D02*
X158288672Y-61118252D01*
X158288672Y-60784919D02*
X158336291Y-60832538D01*
X158336291Y-60832538D02*
X158288672Y-60880157D01*
X158288672Y-60880157D02*
X158241053Y-60832538D01*
X158241053Y-60832538D02*
X158288672Y-60784919D01*
X158288672Y-60784919D02*
X158288672Y-60880157D01*
X157431530Y-61737300D02*
X157526768Y-61784919D01*
X157526768Y-61784919D02*
X157717244Y-61784919D01*
X157717244Y-61784919D02*
X157812482Y-61737300D01*
X157812482Y-61737300D02*
X157860101Y-61642061D01*
X157860101Y-61642061D02*
X157860101Y-61261109D01*
X157860101Y-61261109D02*
X157812482Y-61165871D01*
X157812482Y-61165871D02*
X157717244Y-61118252D01*
X157717244Y-61118252D02*
X157526768Y-61118252D01*
X157526768Y-61118252D02*
X157431530Y-61165871D01*
X157431530Y-61165871D02*
X157383911Y-61261109D01*
X157383911Y-61261109D02*
X157383911Y-61356347D01*
X157383911Y-61356347D02*
X157860101Y-61451585D01*
X157002958Y-61737300D02*
X156907720Y-61784919D01*
X156907720Y-61784919D02*
X156717244Y-61784919D01*
X156717244Y-61784919D02*
X156622006Y-61737300D01*
X156622006Y-61737300D02*
X156574387Y-61642061D01*
X156574387Y-61642061D02*
X156574387Y-61594442D01*
X156574387Y-61594442D02*
X156622006Y-61499204D01*
X156622006Y-61499204D02*
X156717244Y-61451585D01*
X156717244Y-61451585D02*
X156860101Y-61451585D01*
X156860101Y-61451585D02*
X156955339Y-61403966D01*
X156955339Y-61403966D02*
X157002958Y-61308728D01*
X157002958Y-61308728D02*
X157002958Y-61261109D01*
X157002958Y-61261109D02*
X156955339Y-61165871D01*
X156955339Y-61165871D02*
X156860101Y-61118252D01*
X156860101Y-61118252D02*
X156717244Y-61118252D01*
X156717244Y-61118252D02*
X156622006Y-61165871D01*
X156098196Y-61737300D02*
X156098196Y-61784919D01*
X156098196Y-61784919D02*
X156145815Y-61880157D01*
X156145815Y-61880157D02*
X156193434Y-61927776D01*
X154907720Y-61784919D02*
X154907720Y-60784919D01*
X154907720Y-60784919D02*
X154574387Y-61499204D01*
X154574387Y-61499204D02*
X154241054Y-60784919D01*
X154241054Y-60784919D02*
X154241054Y-61784919D01*
X153622006Y-61784919D02*
X153717244Y-61737300D01*
X153717244Y-61737300D02*
X153764863Y-61689680D01*
X153764863Y-61689680D02*
X153812482Y-61594442D01*
X153812482Y-61594442D02*
X153812482Y-61308728D01*
X153812482Y-61308728D02*
X153764863Y-61213490D01*
X153764863Y-61213490D02*
X153717244Y-61165871D01*
X153717244Y-61165871D02*
X153622006Y-61118252D01*
X153622006Y-61118252D02*
X153479149Y-61118252D01*
X153479149Y-61118252D02*
X153383911Y-61165871D01*
X153383911Y-61165871D02*
X153336292Y-61213490D01*
X153336292Y-61213490D02*
X153288673Y-61308728D01*
X153288673Y-61308728D02*
X153288673Y-61594442D01*
X153288673Y-61594442D02*
X153336292Y-61689680D01*
X153336292Y-61689680D02*
X153383911Y-61737300D01*
X153383911Y-61737300D02*
X153479149Y-61784919D01*
X153479149Y-61784919D02*
X153622006Y-61784919D01*
X152955339Y-61118252D02*
X152717244Y-61784919D01*
X152717244Y-61784919D02*
X152479149Y-61118252D01*
X152098196Y-61784919D02*
X152098196Y-61118252D01*
X152098196Y-60784919D02*
X152145815Y-60832538D01*
X152145815Y-60832538D02*
X152098196Y-60880157D01*
X152098196Y-60880157D02*
X152050577Y-60832538D01*
X152050577Y-60832538D02*
X152098196Y-60784919D01*
X152098196Y-60784919D02*
X152098196Y-60880157D01*
X151241054Y-61737300D02*
X151336292Y-61784919D01*
X151336292Y-61784919D02*
X151526768Y-61784919D01*
X151526768Y-61784919D02*
X151622006Y-61737300D01*
X151622006Y-61737300D02*
X151669625Y-61642061D01*
X151669625Y-61642061D02*
X151669625Y-61261109D01*
X151669625Y-61261109D02*
X151622006Y-61165871D01*
X151622006Y-61165871D02*
X151526768Y-61118252D01*
X151526768Y-61118252D02*
X151336292Y-61118252D01*
X151336292Y-61118252D02*
X151241054Y-61165871D01*
X151241054Y-61165871D02*
X151193435Y-61261109D01*
X151193435Y-61261109D02*
X151193435Y-61356347D01*
X151193435Y-61356347D02*
X151669625Y-61451585D01*
X149431530Y-61784919D02*
X149764863Y-61308728D01*
X150002958Y-61784919D02*
X150002958Y-60784919D01*
X150002958Y-60784919D02*
X149622006Y-60784919D01*
X149622006Y-60784919D02*
X149526768Y-60832538D01*
X149526768Y-60832538D02*
X149479149Y-60880157D01*
X149479149Y-60880157D02*
X149431530Y-60975395D01*
X149431530Y-60975395D02*
X149431530Y-61118252D01*
X149431530Y-61118252D02*
X149479149Y-61213490D01*
X149479149Y-61213490D02*
X149526768Y-61261109D01*
X149526768Y-61261109D02*
X149622006Y-61308728D01*
X149622006Y-61308728D02*
X150002958Y-61308728D01*
X148622006Y-61737300D02*
X148717244Y-61784919D01*
X148717244Y-61784919D02*
X148907720Y-61784919D01*
X148907720Y-61784919D02*
X149002958Y-61737300D01*
X149002958Y-61737300D02*
X149050577Y-61642061D01*
X149050577Y-61642061D02*
X149050577Y-61261109D01*
X149050577Y-61261109D02*
X149002958Y-61165871D01*
X149002958Y-61165871D02*
X148907720Y-61118252D01*
X148907720Y-61118252D02*
X148717244Y-61118252D01*
X148717244Y-61118252D02*
X148622006Y-61165871D01*
X148622006Y-61165871D02*
X148574387Y-61261109D01*
X148574387Y-61261109D02*
X148574387Y-61356347D01*
X148574387Y-61356347D02*
X149050577Y-61451585D01*
X148241053Y-61118252D02*
X148002958Y-61784919D01*
X148002958Y-61784919D02*
X147764863Y-61118252D01*
X147002958Y-61737300D02*
X147098196Y-61784919D01*
X147098196Y-61784919D02*
X147288672Y-61784919D01*
X147288672Y-61784919D02*
X147383910Y-61737300D01*
X147383910Y-61737300D02*
X147431529Y-61642061D01*
X147431529Y-61642061D02*
X147431529Y-61261109D01*
X147431529Y-61261109D02*
X147383910Y-61165871D01*
X147383910Y-61165871D02*
X147288672Y-61118252D01*
X147288672Y-61118252D02*
X147098196Y-61118252D01*
X147098196Y-61118252D02*
X147002958Y-61165871D01*
X147002958Y-61165871D02*
X146955339Y-61261109D01*
X146955339Y-61261109D02*
X146955339Y-61356347D01*
X146955339Y-61356347D02*
X147431529Y-61451585D01*
X146526767Y-61118252D02*
X146526767Y-61784919D01*
X146526767Y-61213490D02*
X146479148Y-61165871D01*
X146479148Y-61165871D02*
X146383910Y-61118252D01*
X146383910Y-61118252D02*
X146241053Y-61118252D01*
X146241053Y-61118252D02*
X146145815Y-61165871D01*
X146145815Y-61165871D02*
X146098196Y-61261109D01*
X146098196Y-61261109D02*
X146098196Y-61784919D01*
X145193434Y-61118252D02*
X145193434Y-61784919D01*
X145622005Y-61118252D02*
X145622005Y-61642061D01*
X145622005Y-61642061D02*
X145574386Y-61737300D01*
X145574386Y-61737300D02*
X145479148Y-61784919D01*
X145479148Y-61784919D02*
X145336291Y-61784919D01*
X145336291Y-61784919D02*
X145241053Y-61737300D01*
X145241053Y-61737300D02*
X145193434Y-61689680D01*
X144336291Y-61737300D02*
X144431529Y-61784919D01*
X144431529Y-61784919D02*
X144622005Y-61784919D01*
X144622005Y-61784919D02*
X144717243Y-61737300D01*
X144717243Y-61737300D02*
X144764862Y-61642061D01*
X144764862Y-61642061D02*
X144764862Y-61261109D01*
X144764862Y-61261109D02*
X144717243Y-61165871D01*
X144717243Y-61165871D02*
X144622005Y-61118252D01*
X144622005Y-61118252D02*
X144431529Y-61118252D01*
X144431529Y-61118252D02*
X144336291Y-61165871D01*
X144336291Y-61165871D02*
X144288672Y-61261109D01*
X144288672Y-61261109D02*
X144288672Y-61356347D01*
X144288672Y-61356347D02*
X144764862Y-61451585D01*
X143145814Y-61737300D02*
X143002957Y-61784919D01*
X143002957Y-61784919D02*
X142764862Y-61784919D01*
X142764862Y-61784919D02*
X142669624Y-61737300D01*
X142669624Y-61737300D02*
X142622005Y-61689680D01*
X142622005Y-61689680D02*
X142574386Y-61594442D01*
X142574386Y-61594442D02*
X142574386Y-61499204D01*
X142574386Y-61499204D02*
X142622005Y-61403966D01*
X142622005Y-61403966D02*
X142669624Y-61356347D01*
X142669624Y-61356347D02*
X142764862Y-61308728D01*
X142764862Y-61308728D02*
X142955338Y-61261109D01*
X142955338Y-61261109D02*
X143050576Y-61213490D01*
X143050576Y-61213490D02*
X143098195Y-61165871D01*
X143098195Y-61165871D02*
X143145814Y-61070633D01*
X143145814Y-61070633D02*
X143145814Y-60975395D01*
X143145814Y-60975395D02*
X143098195Y-60880157D01*
X143098195Y-60880157D02*
X143050576Y-60832538D01*
X143050576Y-60832538D02*
X142955338Y-60784919D01*
X142955338Y-60784919D02*
X142717243Y-60784919D01*
X142717243Y-60784919D02*
X142574386Y-60832538D01*
X142145814Y-61784919D02*
X142145814Y-60784919D01*
X142050576Y-61403966D02*
X141764862Y-61784919D01*
X141764862Y-61118252D02*
X142145814Y-61499204D01*
X141431528Y-61118252D02*
X141193433Y-61784919D01*
X140955338Y-61118252D02*
X141193433Y-61784919D01*
X141193433Y-61784919D02*
X141288671Y-62023014D01*
X141288671Y-62023014D02*
X141336290Y-62070633D01*
X141336290Y-62070633D02*
X141431528Y-62118252D01*
X139812480Y-61784919D02*
X139812480Y-60784919D01*
X139812480Y-61261109D02*
X139241052Y-61261109D01*
X139241052Y-61784919D02*
X139241052Y-60784919D01*
X138764861Y-61784919D02*
X138764861Y-61118252D01*
X138764861Y-60784919D02*
X138812480Y-60832538D01*
X138812480Y-60832538D02*
X138764861Y-60880157D01*
X138764861Y-60880157D02*
X138717242Y-60832538D01*
X138717242Y-60832538D02*
X138764861Y-60784919D01*
X138764861Y-60784919D02*
X138764861Y-60880157D01*
X137860100Y-61118252D02*
X137860100Y-61927776D01*
X137860100Y-61927776D02*
X137907719Y-62023014D01*
X137907719Y-62023014D02*
X137955338Y-62070633D01*
X137955338Y-62070633D02*
X138050576Y-62118252D01*
X138050576Y-62118252D02*
X138193433Y-62118252D01*
X138193433Y-62118252D02*
X138288671Y-62070633D01*
X137860100Y-61737300D02*
X137955338Y-61784919D01*
X137955338Y-61784919D02*
X138145814Y-61784919D01*
X138145814Y-61784919D02*
X138241052Y-61737300D01*
X138241052Y-61737300D02*
X138288671Y-61689680D01*
X138288671Y-61689680D02*
X138336290Y-61594442D01*
X138336290Y-61594442D02*
X138336290Y-61308728D01*
X138336290Y-61308728D02*
X138288671Y-61213490D01*
X138288671Y-61213490D02*
X138241052Y-61165871D01*
X138241052Y-61165871D02*
X138145814Y-61118252D01*
X138145814Y-61118252D02*
X137955338Y-61118252D01*
X137955338Y-61118252D02*
X137860100Y-61165871D01*
X137383909Y-61784919D02*
X137383909Y-60784919D01*
X136955338Y-61784919D02*
X136955338Y-61261109D01*
X136955338Y-61261109D02*
X137002957Y-61165871D01*
X137002957Y-61165871D02*
X137098195Y-61118252D01*
X137098195Y-61118252D02*
X137241052Y-61118252D01*
X137241052Y-61118252D02*
X137336290Y-61165871D01*
X137336290Y-61165871D02*
X137383909Y-61213490D01*
X136431528Y-61737300D02*
X136431528Y-61784919D01*
X136431528Y-61784919D02*
X136479147Y-61880157D01*
X136479147Y-61880157D02*
X136526766Y-61927776D01*
X135241052Y-61784919D02*
X135241052Y-60784919D01*
X135241052Y-60784919D02*
X134907719Y-61499204D01*
X134907719Y-61499204D02*
X134574386Y-60784919D01*
X134574386Y-60784919D02*
X134574386Y-61784919D01*
X133669624Y-61118252D02*
X133669624Y-61784919D01*
X134098195Y-61118252D02*
X134098195Y-61642061D01*
X134098195Y-61642061D02*
X134050576Y-61737300D01*
X134050576Y-61737300D02*
X133955338Y-61784919D01*
X133955338Y-61784919D02*
X133812481Y-61784919D01*
X133812481Y-61784919D02*
X133717243Y-61737300D01*
X133717243Y-61737300D02*
X133669624Y-61689680D01*
X133241052Y-61737300D02*
X133145814Y-61784919D01*
X133145814Y-61784919D02*
X132955338Y-61784919D01*
X132955338Y-61784919D02*
X132860100Y-61737300D01*
X132860100Y-61737300D02*
X132812481Y-61642061D01*
X132812481Y-61642061D02*
X132812481Y-61594442D01*
X132812481Y-61594442D02*
X132860100Y-61499204D01*
X132860100Y-61499204D02*
X132955338Y-61451585D01*
X132955338Y-61451585D02*
X133098195Y-61451585D01*
X133098195Y-61451585D02*
X133193433Y-61403966D01*
X133193433Y-61403966D02*
X133241052Y-61308728D01*
X133241052Y-61308728D02*
X133241052Y-61261109D01*
X133241052Y-61261109D02*
X133193433Y-61165871D01*
X133193433Y-61165871D02*
X133098195Y-61118252D01*
X133098195Y-61118252D02*
X132955338Y-61118252D01*
X132955338Y-61118252D02*
X132860100Y-61165871D01*
X132383909Y-61784919D02*
X132383909Y-61118252D01*
X132383909Y-60784919D02*
X132431528Y-60832538D01*
X132431528Y-60832538D02*
X132383909Y-60880157D01*
X132383909Y-60880157D02*
X132336290Y-60832538D01*
X132336290Y-60832538D02*
X132383909Y-60784919D01*
X132383909Y-60784919D02*
X132383909Y-60880157D01*
X131479148Y-61737300D02*
X131574386Y-61784919D01*
X131574386Y-61784919D02*
X131764862Y-61784919D01*
X131764862Y-61784919D02*
X131860100Y-61737300D01*
X131860100Y-61737300D02*
X131907719Y-61689680D01*
X131907719Y-61689680D02*
X131955338Y-61594442D01*
X131955338Y-61594442D02*
X131955338Y-61308728D01*
X131955338Y-61308728D02*
X131907719Y-61213490D01*
X131907719Y-61213490D02*
X131860100Y-61165871D01*
X131860100Y-61165871D02*
X131764862Y-61118252D01*
X131764862Y-61118252D02*
X131574386Y-61118252D01*
X131574386Y-61118252D02*
X131479148Y-61165871D01*
X130622005Y-61784919D02*
X130622005Y-61261109D01*
X130622005Y-61261109D02*
X130669624Y-61165871D01*
X130669624Y-61165871D02*
X130764862Y-61118252D01*
X130764862Y-61118252D02*
X130955338Y-61118252D01*
X130955338Y-61118252D02*
X131050576Y-61165871D01*
X130622005Y-61737300D02*
X130717243Y-61784919D01*
X130717243Y-61784919D02*
X130955338Y-61784919D01*
X130955338Y-61784919D02*
X131050576Y-61737300D01*
X131050576Y-61737300D02*
X131098195Y-61642061D01*
X131098195Y-61642061D02*
X131098195Y-61546823D01*
X131098195Y-61546823D02*
X131050576Y-61451585D01*
X131050576Y-61451585D02*
X130955338Y-61403966D01*
X130955338Y-61403966D02*
X130717243Y-61403966D01*
X130717243Y-61403966D02*
X130622005Y-61356347D01*
X130002957Y-61784919D02*
X130098195Y-61737300D01*
X130098195Y-61737300D02*
X130145814Y-61642061D01*
X130145814Y-61642061D02*
X130145814Y-60784919D01*
X128383909Y-61784919D02*
X128860099Y-61784919D01*
X128860099Y-61784919D02*
X128860099Y-60784919D01*
X128050575Y-61784919D02*
X128050575Y-61118252D01*
X128050575Y-60784919D02*
X128098194Y-60832538D01*
X128098194Y-60832538D02*
X128050575Y-60880157D01*
X128050575Y-60880157D02*
X128002956Y-60832538D01*
X128002956Y-60832538D02*
X128050575Y-60784919D01*
X128050575Y-60784919D02*
X128050575Y-60880157D01*
X127193433Y-61737300D02*
X127288671Y-61784919D01*
X127288671Y-61784919D02*
X127479147Y-61784919D01*
X127479147Y-61784919D02*
X127574385Y-61737300D01*
X127574385Y-61737300D02*
X127622004Y-61642061D01*
X127622004Y-61642061D02*
X127622004Y-61261109D01*
X127622004Y-61261109D02*
X127574385Y-61165871D01*
X127574385Y-61165871D02*
X127479147Y-61118252D01*
X127479147Y-61118252D02*
X127288671Y-61118252D01*
X127288671Y-61118252D02*
X127193433Y-61165871D01*
X127193433Y-61165871D02*
X127145814Y-61261109D01*
X127145814Y-61261109D02*
X127145814Y-61356347D01*
X127145814Y-61356347D02*
X127622004Y-61451585D01*
X126669623Y-61737300D02*
X126669623Y-61784919D01*
X126669623Y-61784919D02*
X126717242Y-61880157D01*
X126717242Y-61880157D02*
X126764861Y-61927776D01*
X125622004Y-60784919D02*
X125050576Y-60784919D01*
X125336290Y-61784919D02*
X125336290Y-60784919D01*
X124717242Y-61784919D02*
X124717242Y-61118252D01*
X124717242Y-61308728D02*
X124669623Y-61213490D01*
X124669623Y-61213490D02*
X124622004Y-61165871D01*
X124622004Y-61165871D02*
X124526766Y-61118252D01*
X124526766Y-61118252D02*
X124431528Y-61118252D01*
X123669623Y-61784919D02*
X123669623Y-61261109D01*
X123669623Y-61261109D02*
X123717242Y-61165871D01*
X123717242Y-61165871D02*
X123812480Y-61118252D01*
X123812480Y-61118252D02*
X124002956Y-61118252D01*
X124002956Y-61118252D02*
X124098194Y-61165871D01*
X123669623Y-61737300D02*
X123764861Y-61784919D01*
X123764861Y-61784919D02*
X124002956Y-61784919D01*
X124002956Y-61784919D02*
X124098194Y-61737300D01*
X124098194Y-61737300D02*
X124145813Y-61642061D01*
X124145813Y-61642061D02*
X124145813Y-61546823D01*
X124145813Y-61546823D02*
X124098194Y-61451585D01*
X124098194Y-61451585D02*
X124002956Y-61403966D01*
X124002956Y-61403966D02*
X123764861Y-61403966D01*
X123764861Y-61403966D02*
X123669623Y-61356347D01*
X123288670Y-61118252D02*
X123050575Y-61784919D01*
X123050575Y-61784919D02*
X122812480Y-61118252D01*
X122431527Y-61784919D02*
X122431527Y-61118252D01*
X122431527Y-60784919D02*
X122479146Y-60832538D01*
X122479146Y-60832538D02*
X122431527Y-60880157D01*
X122431527Y-60880157D02*
X122383908Y-60832538D01*
X122383908Y-60832538D02*
X122431527Y-60784919D01*
X122431527Y-60784919D02*
X122431527Y-60880157D01*
X122002956Y-61737300D02*
X121907718Y-61784919D01*
X121907718Y-61784919D02*
X121717242Y-61784919D01*
X121717242Y-61784919D02*
X121622004Y-61737300D01*
X121622004Y-61737300D02*
X121574385Y-61642061D01*
X121574385Y-61642061D02*
X121574385Y-61594442D01*
X121574385Y-61594442D02*
X121622004Y-61499204D01*
X121622004Y-61499204D02*
X121717242Y-61451585D01*
X121717242Y-61451585D02*
X121860099Y-61451585D01*
X121860099Y-61451585D02*
X121955337Y-61403966D01*
X121955337Y-61403966D02*
X122002956Y-61308728D01*
X122002956Y-61308728D02*
X122002956Y-61261109D01*
X122002956Y-61261109D02*
X121955337Y-61165871D01*
X121955337Y-61165871D02*
X121860099Y-61118252D01*
X121860099Y-61118252D02*
X121717242Y-61118252D01*
X121717242Y-61118252D02*
X121622004Y-61165871D01*
X120431527Y-61737300D02*
X120288670Y-61784919D01*
X120288670Y-61784919D02*
X120050575Y-61784919D01*
X120050575Y-61784919D02*
X119955337Y-61737300D01*
X119955337Y-61737300D02*
X119907718Y-61689680D01*
X119907718Y-61689680D02*
X119860099Y-61594442D01*
X119860099Y-61594442D02*
X119860099Y-61499204D01*
X119860099Y-61499204D02*
X119907718Y-61403966D01*
X119907718Y-61403966D02*
X119955337Y-61356347D01*
X119955337Y-61356347D02*
X120050575Y-61308728D01*
X120050575Y-61308728D02*
X120241051Y-61261109D01*
X120241051Y-61261109D02*
X120336289Y-61213490D01*
X120336289Y-61213490D02*
X120383908Y-61165871D01*
X120383908Y-61165871D02*
X120431527Y-61070633D01*
X120431527Y-61070633D02*
X120431527Y-60975395D01*
X120431527Y-60975395D02*
X120383908Y-60880157D01*
X120383908Y-60880157D02*
X120336289Y-60832538D01*
X120336289Y-60832538D02*
X120241051Y-60784919D01*
X120241051Y-60784919D02*
X120002956Y-60784919D01*
X120002956Y-60784919D02*
X119860099Y-60832538D01*
X119002956Y-61737300D02*
X119098194Y-61784919D01*
X119098194Y-61784919D02*
X119288670Y-61784919D01*
X119288670Y-61784919D02*
X119383908Y-61737300D01*
X119383908Y-61737300D02*
X119431527Y-61689680D01*
X119431527Y-61689680D02*
X119479146Y-61594442D01*
X119479146Y-61594442D02*
X119479146Y-61308728D01*
X119479146Y-61308728D02*
X119431527Y-61213490D01*
X119431527Y-61213490D02*
X119383908Y-61165871D01*
X119383908Y-61165871D02*
X119288670Y-61118252D01*
X119288670Y-61118252D02*
X119098194Y-61118252D01*
X119098194Y-61118252D02*
X119002956Y-61165871D01*
X118431527Y-61784919D02*
X118526765Y-61737300D01*
X118526765Y-61737300D02*
X118574384Y-61689680D01*
X118574384Y-61689680D02*
X118622003Y-61594442D01*
X118622003Y-61594442D02*
X118622003Y-61308728D01*
X118622003Y-61308728D02*
X118574384Y-61213490D01*
X118574384Y-61213490D02*
X118526765Y-61165871D01*
X118526765Y-61165871D02*
X118431527Y-61118252D01*
X118431527Y-61118252D02*
X118288670Y-61118252D01*
X118288670Y-61118252D02*
X118193432Y-61165871D01*
X118193432Y-61165871D02*
X118145813Y-61213490D01*
X118145813Y-61213490D02*
X118098194Y-61308728D01*
X118098194Y-61308728D02*
X118098194Y-61594442D01*
X118098194Y-61594442D02*
X118145813Y-61689680D01*
X118145813Y-61689680D02*
X118193432Y-61737300D01*
X118193432Y-61737300D02*
X118288670Y-61784919D01*
X118288670Y-61784919D02*
X118431527Y-61784919D01*
X117812479Y-61118252D02*
X117431527Y-61118252D01*
X117669622Y-60784919D02*
X117669622Y-61642061D01*
X117669622Y-61642061D02*
X117622003Y-61737300D01*
X117622003Y-61737300D02*
X117526765Y-61784919D01*
X117526765Y-61784919D02*
X117431527Y-61784919D01*
X117241050Y-61118252D02*
X116860098Y-61118252D01*
X117098193Y-60784919D02*
X117098193Y-61642061D01*
X117098193Y-61642061D02*
X117050574Y-61737300D01*
X117050574Y-61737300D02*
X116955336Y-61784919D01*
X116955336Y-61784919D02*
X116860098Y-61784919D01*
X115812478Y-60784919D02*
X115812478Y-60975395D01*
X115431526Y-60784919D02*
X115431526Y-60975395D01*
X115002954Y-61784919D02*
X115002954Y-60784919D01*
X115002954Y-60784919D02*
X114669621Y-61499204D01*
X114669621Y-61499204D02*
X114336288Y-60784919D01*
X114336288Y-60784919D02*
X114336288Y-61784919D01*
X113431526Y-61784919D02*
X113431526Y-61261109D01*
X113431526Y-61261109D02*
X113479145Y-61165871D01*
X113479145Y-61165871D02*
X113574383Y-61118252D01*
X113574383Y-61118252D02*
X113764859Y-61118252D01*
X113764859Y-61118252D02*
X113860097Y-61165871D01*
X113431526Y-61737300D02*
X113526764Y-61784919D01*
X113526764Y-61784919D02*
X113764859Y-61784919D01*
X113764859Y-61784919D02*
X113860097Y-61737300D01*
X113860097Y-61737300D02*
X113907716Y-61642061D01*
X113907716Y-61642061D02*
X113907716Y-61546823D01*
X113907716Y-61546823D02*
X113860097Y-61451585D01*
X113860097Y-61451585D02*
X113764859Y-61403966D01*
X113764859Y-61403966D02*
X113526764Y-61403966D01*
X113526764Y-61403966D02*
X113431526Y-61356347D01*
X112955335Y-61784919D02*
X112955335Y-61118252D01*
X112955335Y-61213490D02*
X112907716Y-61165871D01*
X112907716Y-61165871D02*
X112812478Y-61118252D01*
X112812478Y-61118252D02*
X112669621Y-61118252D01*
X112669621Y-61118252D02*
X112574383Y-61165871D01*
X112574383Y-61165871D02*
X112526764Y-61261109D01*
X112526764Y-61261109D02*
X112526764Y-61784919D01*
X112526764Y-61261109D02*
X112479145Y-61165871D01*
X112479145Y-61165871D02*
X112383907Y-61118252D01*
X112383907Y-61118252D02*
X112241050Y-61118252D01*
X112241050Y-61118252D02*
X112145811Y-61165871D01*
X112145811Y-61165871D02*
X112098192Y-61261109D01*
X112098192Y-61261109D02*
X112098192Y-61784919D01*
X111193431Y-61784919D02*
X111193431Y-61261109D01*
X111193431Y-61261109D02*
X111241050Y-61165871D01*
X111241050Y-61165871D02*
X111336288Y-61118252D01*
X111336288Y-61118252D02*
X111526764Y-61118252D01*
X111526764Y-61118252D02*
X111622002Y-61165871D01*
X111193431Y-61737300D02*
X111288669Y-61784919D01*
X111288669Y-61784919D02*
X111526764Y-61784919D01*
X111526764Y-61784919D02*
X111622002Y-61737300D01*
X111622002Y-61737300D02*
X111669621Y-61642061D01*
X111669621Y-61642061D02*
X111669621Y-61546823D01*
X111669621Y-61546823D02*
X111622002Y-61451585D01*
X111622002Y-61451585D02*
X111526764Y-61403966D01*
X111526764Y-61403966D02*
X111288669Y-61403966D01*
X111288669Y-61403966D02*
X111193431Y-61356347D01*
X109955335Y-61784919D02*
X109955335Y-60784919D01*
X108288669Y-61737300D02*
X108383907Y-61784919D01*
X108383907Y-61784919D02*
X108574383Y-61784919D01*
X108574383Y-61784919D02*
X108669621Y-61737300D01*
X108669621Y-61737300D02*
X108717240Y-61689680D01*
X108717240Y-61689680D02*
X108764859Y-61594442D01*
X108764859Y-61594442D02*
X108764859Y-61308728D01*
X108764859Y-61308728D02*
X108717240Y-61213490D01*
X108717240Y-61213490D02*
X108669621Y-61165871D01*
X108669621Y-61165871D02*
X108574383Y-61118252D01*
X108574383Y-61118252D02*
X108383907Y-61118252D01*
X108383907Y-61118252D02*
X108288669Y-61165871D01*
X107431526Y-61784919D02*
X107431526Y-61261109D01*
X107431526Y-61261109D02*
X107479145Y-61165871D01*
X107479145Y-61165871D02*
X107574383Y-61118252D01*
X107574383Y-61118252D02*
X107764859Y-61118252D01*
X107764859Y-61118252D02*
X107860097Y-61165871D01*
X107431526Y-61737300D02*
X107526764Y-61784919D01*
X107526764Y-61784919D02*
X107764859Y-61784919D01*
X107764859Y-61784919D02*
X107860097Y-61737300D01*
X107860097Y-61737300D02*
X107907716Y-61642061D01*
X107907716Y-61642061D02*
X107907716Y-61546823D01*
X107907716Y-61546823D02*
X107860097Y-61451585D01*
X107860097Y-61451585D02*
X107764859Y-61403966D01*
X107764859Y-61403966D02*
X107526764Y-61403966D01*
X107526764Y-61403966D02*
X107431526Y-61356347D01*
X106955335Y-61118252D02*
X106955335Y-61784919D01*
X106955335Y-61213490D02*
X106907716Y-61165871D01*
X106907716Y-61165871D02*
X106812478Y-61118252D01*
X106812478Y-61118252D02*
X106669621Y-61118252D01*
X106669621Y-61118252D02*
X106574383Y-61165871D01*
X106574383Y-61165871D02*
X106526764Y-61261109D01*
X106526764Y-61261109D02*
X106526764Y-61784919D01*
X104955335Y-61261109D02*
X105288668Y-61261109D01*
X105288668Y-61784919D02*
X105288668Y-60784919D01*
X105288668Y-60784919D02*
X104812478Y-60784919D01*
X104288668Y-61784919D02*
X104383906Y-61737300D01*
X104383906Y-61737300D02*
X104431525Y-61642061D01*
X104431525Y-61642061D02*
X104431525Y-60784919D01*
X104002953Y-61118252D02*
X103764858Y-61784919D01*
X103526763Y-61118252D02*
X103764858Y-61784919D01*
X103764858Y-61784919D02*
X103860096Y-62023014D01*
X103860096Y-62023014D02*
X103907715Y-62070633D01*
X103907715Y-62070633D02*
X104002953Y-62118252D01*
X103193429Y-60784919D02*
X103193429Y-60975395D01*
X102812477Y-60784919D02*
X102812477Y-60975395D01*
X102336286Y-61737300D02*
X102336286Y-61784919D01*
X102336286Y-61784919D02*
X102383905Y-61880157D01*
X102383905Y-61880157D02*
X102431524Y-61927776D01*
X101193429Y-61499204D02*
X100717239Y-61499204D01*
X101288667Y-61784919D02*
X100955334Y-60784919D01*
X100955334Y-60784919D02*
X100622001Y-61784919D01*
X100288667Y-61784919D02*
X100288667Y-60784919D01*
X100193429Y-61403966D02*
X99907715Y-61784919D01*
X99907715Y-61118252D02*
X100288667Y-61499204D01*
X99526762Y-61737300D02*
X99431524Y-61784919D01*
X99431524Y-61784919D02*
X99241048Y-61784919D01*
X99241048Y-61784919D02*
X99145810Y-61737300D01*
X99145810Y-61737300D02*
X99098191Y-61642061D01*
X99098191Y-61642061D02*
X99098191Y-61594442D01*
X99098191Y-61594442D02*
X99145810Y-61499204D01*
X99145810Y-61499204D02*
X99241048Y-61451585D01*
X99241048Y-61451585D02*
X99383905Y-61451585D01*
X99383905Y-61451585D02*
X99479143Y-61403966D01*
X99479143Y-61403966D02*
X99526762Y-61308728D01*
X99526762Y-61308728D02*
X99526762Y-61261109D01*
X99526762Y-61261109D02*
X99479143Y-61165871D01*
X99479143Y-61165871D02*
X99383905Y-61118252D01*
X99383905Y-61118252D02*
X99241048Y-61118252D01*
X99241048Y-61118252D02*
X99145810Y-61165871D01*
X98669619Y-61784919D02*
X98669619Y-60784919D01*
X98241048Y-61784919D02*
X98241048Y-61261109D01*
X98241048Y-61261109D02*
X98288667Y-61165871D01*
X98288667Y-61165871D02*
X98383905Y-61118252D01*
X98383905Y-61118252D02*
X98526762Y-61118252D01*
X98526762Y-61118252D02*
X98622000Y-61165871D01*
X98622000Y-61165871D02*
X98669619Y-61213490D01*
X97336286Y-61784919D02*
X97336286Y-61261109D01*
X97336286Y-61261109D02*
X97383905Y-61165871D01*
X97383905Y-61165871D02*
X97479143Y-61118252D01*
X97479143Y-61118252D02*
X97669619Y-61118252D01*
X97669619Y-61118252D02*
X97764857Y-61165871D01*
X97336286Y-61737300D02*
X97431524Y-61784919D01*
X97431524Y-61784919D02*
X97669619Y-61784919D01*
X97669619Y-61784919D02*
X97764857Y-61737300D01*
X97764857Y-61737300D02*
X97812476Y-61642061D01*
X97812476Y-61642061D02*
X97812476Y-61546823D01*
X97812476Y-61546823D02*
X97764857Y-61451585D01*
X97764857Y-61451585D02*
X97669619Y-61403966D01*
X97669619Y-61403966D02*
X97431524Y-61403966D01*
X97431524Y-61403966D02*
X97336286Y-61356347D01*
X97002952Y-61118252D02*
X96622000Y-61118252D01*
X96860095Y-60784919D02*
X96860095Y-61642061D01*
X96860095Y-61642061D02*
X96812476Y-61737300D01*
X96812476Y-61737300D02*
X96717238Y-61784919D01*
X96717238Y-61784919D02*
X96622000Y-61784919D01*
X95526761Y-61784919D02*
X95526761Y-61118252D01*
X95526761Y-60784919D02*
X95574380Y-60832538D01*
X95574380Y-60832538D02*
X95526761Y-60880157D01*
X95526761Y-60880157D02*
X95479142Y-60832538D01*
X95479142Y-60832538D02*
X95526761Y-60784919D01*
X95526761Y-60784919D02*
X95526761Y-60880157D01*
X95050571Y-61118252D02*
X95050571Y-61784919D01*
X95050571Y-61213490D02*
X95002952Y-61165871D01*
X95002952Y-61165871D02*
X94907714Y-61118252D01*
X94907714Y-61118252D02*
X94764857Y-61118252D01*
X94764857Y-61118252D02*
X94669619Y-61165871D01*
X94669619Y-61165871D02*
X94622000Y-61261109D01*
X94622000Y-61261109D02*
X94622000Y-61784919D01*
X92907714Y-60784919D02*
X93383904Y-60784919D01*
X93383904Y-60784919D02*
X93431523Y-61261109D01*
X93431523Y-61261109D02*
X93383904Y-61213490D01*
X93383904Y-61213490D02*
X93288666Y-61165871D01*
X93288666Y-61165871D02*
X93050571Y-61165871D01*
X93050571Y-61165871D02*
X92955333Y-61213490D01*
X92955333Y-61213490D02*
X92907714Y-61261109D01*
X92907714Y-61261109D02*
X92860095Y-61356347D01*
X92860095Y-61356347D02*
X92860095Y-61594442D01*
X92860095Y-61594442D02*
X92907714Y-61689680D01*
X92907714Y-61689680D02*
X92955333Y-61737300D01*
X92955333Y-61737300D02*
X93050571Y-61784919D01*
X93050571Y-61784919D02*
X93288666Y-61784919D01*
X93288666Y-61784919D02*
X93383904Y-61737300D01*
X93383904Y-61737300D02*
X93431523Y-61689680D01*
%LPC*%
D11*
G04 #@! TO.C,D3*
X87987500Y-75075000D03*
D12*
X95607500Y-75075000D03*
G04 #@! TD*
D11*
G04 #@! TO.C,D4*
X87987500Y-78625000D03*
D12*
X95607500Y-78625000D03*
G04 #@! TD*
D13*
G04 #@! TO.C,SW2*
X99258750Y-88106250D03*
D14*
X104338750Y-88106250D03*
D13*
X109418750Y-88106250D03*
D15*
X106878750Y-83026250D03*
X100528750Y-85566250D03*
G04 #@! TD*
D11*
G04 #@! TO.C,D1*
X87987500Y-67975000D03*
D12*
X95607500Y-67975000D03*
G04 #@! TD*
D13*
G04 #@! TO.C,SW8*
X150235000Y-88106250D03*
D14*
X155315000Y-88106250D03*
D13*
X160395000Y-88106250D03*
D15*
X157855000Y-83026250D03*
X151505000Y-85566250D03*
G04 #@! TD*
D11*
G04 #@! TO.C,D2*
X87987500Y-71525000D03*
D12*
X95607500Y-71525000D03*
G04 #@! TD*
D16*
G04 #@! TO.C,SW9*
X181206250Y-64175000D03*
X181206250Y-69175000D03*
D17*
X166706250Y-64175000D03*
D18*
X166706250Y-69175000D03*
X166706250Y-66675000D03*
D19*
X174206250Y-61075000D03*
X174206250Y-72275000D03*
G04 #@! TD*
D13*
G04 #@! TO.C,SW5*
X132913750Y-69215000D03*
D14*
X137993750Y-69215000D03*
D13*
X143073750Y-69215000D03*
D15*
X140533750Y-64135000D03*
X134183750Y-66675000D03*
G04 #@! TD*
D13*
G04 #@! TO.C,SW3*
X116077500Y-69215000D03*
D14*
X121157500Y-69215000D03*
D13*
X126237500Y-69215000D03*
D15*
X123697500Y-64135000D03*
X117347500Y-66675000D03*
G04 #@! TD*
D11*
G04 #@! TO.C,D7*
X87987500Y-89275000D03*
D12*
X95607500Y-89275000D03*
G04 #@! TD*
D13*
G04 #@! TO.C,SW7*
X150235000Y-69215000D03*
D14*
X155315000Y-69215000D03*
D13*
X160395000Y-69215000D03*
D15*
X157855000Y-64135000D03*
X151505000Y-66675000D03*
G04 #@! TD*
D20*
G04 #@! TO.C,U1*
X182816500Y-78105000D03*
X180276500Y-78105000D03*
X177736500Y-78105000D03*
X175196500Y-78105000D03*
X172656500Y-78105000D03*
X170116500Y-78105000D03*
X167576500Y-78105000D03*
X167576500Y-93345000D03*
X170116500Y-93345000D03*
X172656500Y-93345000D03*
X175196500Y-93345000D03*
X177736500Y-93345000D03*
X180276500Y-93345000D03*
X182816500Y-93345000D03*
G04 #@! TD*
D13*
G04 #@! TO.C,SW1*
X99258750Y-69215000D03*
D14*
X104338750Y-69215000D03*
D13*
X109418750Y-69215000D03*
D15*
X106878750Y-64135000D03*
X100528750Y-66675000D03*
G04 #@! TD*
D13*
G04 #@! TO.C,SW4*
X116077500Y-88106250D03*
D14*
X121157500Y-88106250D03*
D13*
X126237500Y-88106250D03*
D15*
X123697500Y-83026250D03*
X117347500Y-85566250D03*
G04 #@! TD*
D13*
G04 #@! TO.C,SW6*
X132913750Y-88106250D03*
D14*
X137993750Y-88106250D03*
D13*
X143073750Y-88106250D03*
D15*
X140533750Y-83026250D03*
X134183750Y-85566250D03*
G04 #@! TD*
D11*
G04 #@! TO.C,D8*
X87987500Y-92825000D03*
D12*
X95607500Y-92825000D03*
G04 #@! TD*
D11*
G04 #@! TO.C,D6*
X87987500Y-85725000D03*
D12*
X95607500Y-85725000D03*
G04 #@! TD*
D11*
G04 #@! TO.C,D5*
X87987500Y-82175000D03*
D12*
X95607500Y-82175000D03*
G04 #@! TD*
%LPD*%
M02*
