G04 #@! TF.GenerationSoftware,KiCad,Pcbnew,9.0.2*
G04 #@! TF.CreationDate,2025-06-25T22:16:46-04:00*
G04 #@! TF.ProjectId,Macropad,4d616372-6f70-4616-942e-6b696361645f,rev?*
G04 #@! TF.SameCoordinates,Original*
G04 #@! TF.FileFunction,Copper,L2,Bot*
G04 #@! TF.FilePolarity,Positive*
%FSLAX46Y46*%
G04 Gerber Fmt 4.6, Leading zero omitted, Abs format (unit mm)*
G04 Created by KiCad (PCBNEW 9.0.2) date 2025-06-25 22:16:46*
%MOMM*%
%LPD*%
G01*
G04 APERTURE LIST*
G04 Aperture macros list*
%AMRoundRect*
0 Rectangle with rounded corners*
0 $1 Rounding radius*
0 $2 $3 $4 $5 $6 $7 $8 $9 X,Y pos of 4 corners*
0 Add a 4 corners polygon primitive as box body*
4,1,4,$2,$3,$4,$5,$6,$7,$8,$9,$2,$3,0*
0 Add four circle primitives for the rounded corners*
1,1,$1+$1,$2,$3*
1,1,$1+$1,$4,$5*
1,1,$1+$1,$6,$7*
1,1,$1+$1,$8,$9*
0 Add four rect primitives between the rounded corners*
20,1,$1+$1,$2,$3,$4,$5,0*
20,1,$1+$1,$4,$5,$6,$7,0*
20,1,$1+$1,$6,$7,$8,$9,0*
20,1,$1+$1,$8,$9,$2,$3,0*%
G04 Aperture macros list end*
G04 #@! TA.AperFunction,ComponentPad*
%ADD10RoundRect,0.250000X-0.550000X-0.550000X0.550000X-0.550000X0.550000X0.550000X-0.550000X0.550000X0*%
G04 #@! TD*
G04 #@! TA.AperFunction,ComponentPad*
%ADD11C,1.600000*%
G04 #@! TD*
G04 #@! TA.AperFunction,ComponentPad*
%ADD12C,2.200000*%
G04 #@! TD*
G04 #@! TA.AperFunction,ComponentPad*
%ADD13C,1.500000*%
G04 #@! TD*
G04 #@! TA.AperFunction,ComponentPad*
%ADD14R,2.000000X2.000000*%
G04 #@! TD*
G04 #@! TA.AperFunction,ComponentPad*
%ADD15C,2.000000*%
G04 #@! TD*
G04 #@! TA.AperFunction,ComponentPad*
%ADD16R,3.200000X2.000000*%
G04 #@! TD*
G04 #@! TA.AperFunction,ComponentPad*
%ADD17C,1.524000*%
G04 #@! TD*
G04 #@! TA.AperFunction,ViaPad*
%ADD18C,0.600000*%
G04 #@! TD*
G04 #@! TA.AperFunction,Conductor*
%ADD19C,0.200000*%
G04 #@! TD*
G04 APERTURE END LIST*
D10*
G04 #@! TO.P,D3,1,K*
G04 #@! TO.N,row 1*
X87987500Y-75075000D03*
D11*
G04 #@! TO.P,D3,2,A*
G04 #@! TO.N,Net-(D3-A)*
X95607500Y-75075000D03*
G04 #@! TD*
D10*
G04 #@! TO.P,D4,1,K*
G04 #@! TO.N,row 2*
X87987500Y-78625000D03*
D11*
G04 #@! TO.P,D4,2,A*
G04 #@! TO.N,Net-(D4-A)*
X95607500Y-78625000D03*
G04 #@! TD*
D12*
G04 #@! TO.P,SW2,1,1*
G04 #@! TO.N,Col 1*
X106878750Y-83026250D03*
G04 #@! TO.P,SW2,2,2*
G04 #@! TO.N,Net-(D2-A)*
X100528750Y-85566250D03*
G04 #@! TD*
D10*
G04 #@! TO.P,D1,1,K*
G04 #@! TO.N,row 1*
X87987500Y-67975000D03*
D11*
G04 #@! TO.P,D1,2,A*
G04 #@! TO.N,Net-(D1-A)*
X95607500Y-67975000D03*
G04 #@! TD*
D12*
G04 #@! TO.P,SW8,1,1*
G04 #@! TO.N,Col 1*
X157855000Y-83026250D03*
G04 #@! TO.P,SW8,2,2*
G04 #@! TO.N,Net-(D8-A)*
X151505000Y-85566250D03*
G04 #@! TD*
D10*
G04 #@! TO.P,D2,1,K*
G04 #@! TO.N,row 1*
X87987500Y-71525000D03*
D11*
G04 #@! TO.P,D2,2,A*
G04 #@! TO.N,Net-(D2-A)*
X95607500Y-71525000D03*
G04 #@! TD*
D13*
G04 #@! TO.P,SW9,*
G04 #@! TO.N,*
X181206250Y-64175000D03*
X181206250Y-69175000D03*
D14*
G04 #@! TO.P,SW9,A,A*
G04 #@! TO.N,ENC_A*
X166706250Y-64175000D03*
D15*
G04 #@! TO.P,SW9,B,B*
G04 #@! TO.N,ENC_B*
X166706250Y-69175000D03*
G04 #@! TO.P,SW9,C,C*
G04 #@! TO.N,gnd*
X166706250Y-66675000D03*
D16*
G04 #@! TO.P,SW9,MP*
G04 #@! TO.N,N/C*
X174206250Y-61075000D03*
X174206250Y-72275000D03*
G04 #@! TD*
D12*
G04 #@! TO.P,SW5,1,1*
G04 #@! TO.N,Col 2*
X140533750Y-64135000D03*
G04 #@! TO.P,SW5,2,2*
G04 #@! TO.N,Net-(D6-A)*
X134183750Y-66675000D03*
G04 #@! TD*
G04 #@! TO.P,SW3,1,1*
G04 #@! TO.N,Col 0*
X123697500Y-64135000D03*
G04 #@! TO.P,SW3,2,2*
G04 #@! TO.N,Net-(D4-A)*
X117347500Y-66675000D03*
G04 #@! TD*
D10*
G04 #@! TO.P,D7,1,K*
G04 #@! TO.N,row 0*
X87987500Y-89275000D03*
D11*
G04 #@! TO.P,D7,2,A*
G04 #@! TO.N,Net-(D7-A)*
X95607500Y-89275000D03*
G04 #@! TD*
D12*
G04 #@! TO.P,SW7,1,1*
G04 #@! TO.N,Col 0*
X157855000Y-64135000D03*
G04 #@! TO.P,SW7,2,2*
G04 #@! TO.N,Net-(D1-A)*
X151505000Y-66675000D03*
G04 #@! TD*
D17*
G04 #@! TO.P,U1,1,GPIO26/ADC0/A0*
G04 #@! TO.N,unconnected-(U1-GPIO26{slash}ADC0{slash}A0-Pad1)*
X182816500Y-78105000D03*
G04 #@! TO.P,U1,2,GPIO27/ADC1/A1*
G04 #@! TO.N,Col 0*
X180276500Y-78105000D03*
G04 #@! TO.P,U1,3,GPIO28/ADC2/A2*
G04 #@! TO.N,Col 1*
X177736500Y-78105000D03*
G04 #@! TO.P,U1,4,GPIO29/ADC3/A3*
G04 #@! TO.N,Col 2*
X175196500Y-78105000D03*
G04 #@! TO.P,U1,5,GPIO6/SDA*
G04 #@! TO.N,unconnected-(U1-GPIO6{slash}SDA-Pad5)*
X172656500Y-78105000D03*
G04 #@! TO.P,U1,6,GPIO7/SCL*
G04 #@! TO.N,unconnected-(U1-GPIO7{slash}SCL-Pad6)*
X170116500Y-78105000D03*
G04 #@! TO.P,U1,7,GPIO0/TX*
G04 #@! TO.N,ENC_A*
X167576500Y-78105000D03*
G04 #@! TO.P,U1,8,GPIO1/RX*
G04 #@! TO.N,ENC_B*
X167576500Y-93345000D03*
G04 #@! TO.P,U1,9,GPIO2/SCK*
G04 #@! TO.N,row 2*
X170116500Y-93345000D03*
G04 #@! TO.P,U1,10,GPIO4/MISO*
G04 #@! TO.N,row 1*
X172656500Y-93345000D03*
G04 #@! TO.P,U1,11,GPIO3/MOSI*
G04 #@! TO.N,row 0*
X175196500Y-93345000D03*
G04 #@! TO.P,U1,12,3V3*
G04 #@! TO.N,unconnected-(U1-3V3-Pad12)*
X177736500Y-93345000D03*
G04 #@! TO.P,U1,13,GND*
G04 #@! TO.N,gnd*
X180276500Y-93345000D03*
G04 #@! TO.P,U1,14,VBUS*
G04 #@! TO.N,+5V*
X182816500Y-93345000D03*
G04 #@! TD*
D12*
G04 #@! TO.P,SW1,1,1*
G04 #@! TO.N,Col 2*
X106878750Y-64135000D03*
G04 #@! TO.P,SW1,2,2*
G04 #@! TO.N,Net-(D3-A)*
X100528750Y-66675000D03*
G04 #@! TD*
G04 #@! TO.P,SW4,1,1*
G04 #@! TO.N,Col 1*
X123697500Y-83026250D03*
G04 #@! TO.P,SW4,2,2*
G04 #@! TO.N,Net-(D5-A)*
X117347500Y-85566250D03*
G04 #@! TD*
G04 #@! TO.P,SW6,1,1*
G04 #@! TO.N,Col 0*
X140533750Y-83026250D03*
G04 #@! TO.P,SW6,2,2*
G04 #@! TO.N,Net-(D7-A)*
X134183750Y-85566250D03*
G04 #@! TD*
D10*
G04 #@! TO.P,D8,1,K*
G04 #@! TO.N,row 0*
X87987500Y-92825000D03*
D11*
G04 #@! TO.P,D8,2,A*
G04 #@! TO.N,Net-(D8-A)*
X95607500Y-92825000D03*
G04 #@! TD*
D10*
G04 #@! TO.P,D6,1,K*
G04 #@! TO.N,row 2*
X87987500Y-85725000D03*
D11*
G04 #@! TO.P,D6,2,A*
G04 #@! TO.N,Net-(D6-A)*
X95607500Y-85725000D03*
G04 #@! TD*
D10*
G04 #@! TO.P,D5,1,K*
G04 #@! TO.N,row 2*
X87987500Y-82175000D03*
D11*
G04 #@! TO.P,D5,2,A*
G04 #@! TO.N,Net-(D5-A)*
X95607500Y-82175000D03*
G04 #@! TD*
D18*
G04 #@! TO.N,ENC_B*
X171450000Y-73818750D03*
G04 #@! TD*
D19*
G04 #@! TO.N,Net-(D5-A)*
X99807186Y-86826000D02*
X99948436Y-86967250D01*
X102510064Y-85566250D02*
X117347500Y-85566250D01*
X95151450Y-86826000D02*
X99807186Y-86826000D01*
X101109064Y-86967250D02*
X102510064Y-85566250D01*
X95607500Y-82175000D02*
X94506500Y-83276000D01*
X94506500Y-86181050D02*
X95151450Y-86826000D01*
X99948436Y-86967250D02*
X101109064Y-86967250D01*
X94506500Y-83276000D02*
X94506500Y-86181050D01*
G04 #@! TO.N,Net-(D6-A)*
X95607500Y-85725000D02*
X114077186Y-67255314D01*
X119328814Y-66675000D02*
X134183750Y-66675000D01*
X116767186Y-68076000D02*
X117927814Y-68076000D01*
X114077186Y-67255314D02*
X115946500Y-67255314D01*
X115946500Y-67255314D02*
X116767186Y-68076000D01*
X117927814Y-68076000D02*
X119328814Y-66675000D01*
G04 #@! TO.N,Col 0*
X157855000Y-64135000D02*
X168380750Y-74660750D01*
X168380750Y-74660750D02*
X176832250Y-74660750D01*
X176832250Y-74660750D02*
X180276500Y-78105000D01*
G04 #@! TO.N,ENC_A*
X156288816Y-66817316D02*
X167576500Y-78105000D01*
X157274686Y-62734000D02*
X156288816Y-63719870D01*
X166706250Y-64175000D02*
X165265250Y-62734000D01*
X156288816Y-63719870D02*
X156288816Y-66817316D01*
X165265250Y-62734000D02*
X157274686Y-62734000D01*
G04 #@! TO.N,gnd*
X181339500Y-76206250D02*
X181339500Y-92282000D01*
X171808250Y-66675000D02*
X181339500Y-76206250D01*
X166706250Y-66675000D02*
X171808250Y-66675000D01*
X181339500Y-92282000D02*
X180276500Y-93345000D01*
G04 #@! TO.N,ENC_B*
X166706250Y-69175000D02*
X166806250Y-69175000D01*
X166806250Y-69175000D02*
X171450000Y-73818750D01*
G04 #@! TD*
M02*
