%TF.GenerationSoftware,KiCad,Pcbnew,9.0.2*%
%TF.CreationDate,2025-06-25T22:16:46-04:00*%
%TF.ProjectId,Macropad,4d616372-6f70-4616-942e-6b696361645f,rev?*%
%TF.SameCoordinates,Original*%
%TF.FileFunction,Drillmap*%
%TF.FilePolarity,Positive*%
%FSLAX45Y45*%
G04 Gerber Fmt 4.5, Leading zero omitted, Abs format (unit mm)*
G04 Created by KiCad (PCBNEW 9.0.2) date 2025-06-25 22:16:46*
%MOMM*%
%LPD*%
G01*
G04 APERTURE LIST*
%ADD10C,0.050000*%
%ADD11C,0.200000*%
%ADD12C,0.100000*%
%ADD13C,0.150000*%
G04 APERTURE END LIST*
D10*
X8572500Y-5715000D02*
X18573750Y-5715000D01*
X18573750Y-9763125D01*
X8572500Y-9763125D01*
X8572500Y-5715000D01*
D11*
D12*
X17130000Y-7366875D02*
X17160000Y-7396875D01*
X17160000Y-7366875D02*
X17130000Y-7396875D01*
X8838750Y-6797500D02*
G75*
G02*
X8758750Y-6797500I-40000J0D01*
G01*
X8758750Y-6797500D02*
G75*
G02*
X8838750Y-6797500I40000J0D01*
G01*
X8838750Y-7152500D02*
G75*
G02*
X8758750Y-7152500I-40000J0D01*
G01*
X8758750Y-7152500D02*
G75*
G02*
X8838750Y-7152500I40000J0D01*
G01*
X8838750Y-7507500D02*
G75*
G02*
X8758750Y-7507500I-40000J0D01*
G01*
X8758750Y-7507500D02*
G75*
G02*
X8838750Y-7507500I40000J0D01*
G01*
X8838750Y-7862500D02*
G75*
G02*
X8758750Y-7862500I-40000J0D01*
G01*
X8758750Y-7862500D02*
G75*
G02*
X8838750Y-7862500I40000J0D01*
G01*
X8838750Y-8217500D02*
G75*
G02*
X8758750Y-8217500I-40000J0D01*
G01*
X8758750Y-8217500D02*
G75*
G02*
X8838750Y-8217500I40000J0D01*
G01*
X8838750Y-8572500D02*
G75*
G02*
X8758750Y-8572500I-40000J0D01*
G01*
X8758750Y-8572500D02*
G75*
G02*
X8838750Y-8572500I40000J0D01*
G01*
X8838750Y-8927500D02*
G75*
G02*
X8758750Y-8927500I-40000J0D01*
G01*
X8758750Y-8927500D02*
G75*
G02*
X8838750Y-8927500I40000J0D01*
G01*
X8838750Y-9282500D02*
G75*
G02*
X8758750Y-9282500I-40000J0D01*
G01*
X8758750Y-9282500D02*
G75*
G02*
X8838750Y-9282500I40000J0D01*
G01*
X9600750Y-6797500D02*
G75*
G02*
X9520750Y-6797500I-40000J0D01*
G01*
X9520750Y-6797500D02*
G75*
G02*
X9600750Y-6797500I40000J0D01*
G01*
X9600750Y-7152500D02*
G75*
G02*
X9520750Y-7152500I-40000J0D01*
G01*
X9520750Y-7152500D02*
G75*
G02*
X9600750Y-7152500I40000J0D01*
G01*
X9600750Y-7507500D02*
G75*
G02*
X9520750Y-7507500I-40000J0D01*
G01*
X9520750Y-7507500D02*
G75*
G02*
X9600750Y-7507500I40000J0D01*
G01*
X9600750Y-7862500D02*
G75*
G02*
X9520750Y-7862500I-40000J0D01*
G01*
X9520750Y-7862500D02*
G75*
G02*
X9600750Y-7862500I40000J0D01*
G01*
X9600750Y-8217500D02*
G75*
G02*
X9520750Y-8217500I-40000J0D01*
G01*
X9520750Y-8217500D02*
G75*
G02*
X9600750Y-8217500I40000J0D01*
G01*
X9600750Y-8572500D02*
G75*
G02*
X9520750Y-8572500I-40000J0D01*
G01*
X9520750Y-8572500D02*
G75*
G02*
X9600750Y-8572500I40000J0D01*
G01*
X9600750Y-8927500D02*
G75*
G02*
X9520750Y-8927500I-40000J0D01*
G01*
X9520750Y-8927500D02*
G75*
G02*
X9600750Y-8927500I40000J0D01*
G01*
X9600750Y-9282500D02*
G75*
G02*
X9520750Y-9282500I-40000J0D01*
G01*
X9520750Y-9282500D02*
G75*
G02*
X9600750Y-9282500I40000J0D01*
G01*
X16757650Y-7766050D02*
X16757650Y-7854950D01*
X16713200Y-7810500D02*
X16802100Y-7810500D01*
X16757650Y-9290050D02*
X16757650Y-9378950D01*
X16713200Y-9334500D02*
X16802100Y-9334500D01*
X17011650Y-7766050D02*
X17011650Y-7854950D01*
X16967200Y-7810500D02*
X17056100Y-7810500D01*
X17011650Y-9290050D02*
X17011650Y-9378950D01*
X16967200Y-9334500D02*
X17056100Y-9334500D01*
X17265650Y-7766050D02*
X17265650Y-7854950D01*
X17221200Y-7810500D02*
X17310100Y-7810500D01*
X17265650Y-9290050D02*
X17265650Y-9378950D01*
X17221200Y-9334500D02*
X17310100Y-9334500D01*
X17519650Y-7766050D02*
X17519650Y-7854950D01*
X17475200Y-7810500D02*
X17564100Y-7810500D01*
X17519650Y-9290050D02*
X17519650Y-9378950D01*
X17475200Y-9334500D02*
X17564100Y-9334500D01*
X17773650Y-7766050D02*
X17773650Y-7854950D01*
X17729200Y-7810500D02*
X17818100Y-7810500D01*
X17773650Y-9290050D02*
X17773650Y-9378950D01*
X17729200Y-9334500D02*
X17818100Y-9334500D01*
X18027650Y-7766050D02*
X18027650Y-7854950D01*
X17983200Y-7810500D02*
X18072100Y-7810500D01*
X18027650Y-9290050D02*
X18027650Y-9378950D01*
X17983200Y-9334500D02*
X18072100Y-9334500D01*
X18281650Y-7766050D02*
X18281650Y-7854950D01*
X18237200Y-7810500D02*
X18326100Y-7810500D01*
X18281650Y-9290050D02*
X18281650Y-9378950D01*
X18237200Y-9334500D02*
X18326100Y-9334500D01*
X16705981Y-6452856D02*
X16705981Y-6382144D01*
X16635269Y-6382144D01*
X16635269Y-6452856D01*
X16705981Y-6452856D01*
X16705981Y-6702856D02*
X16705981Y-6632144D01*
X16635269Y-6632144D01*
X16635269Y-6702856D01*
X16705981Y-6702856D01*
X16705981Y-6952856D02*
X16705981Y-6882144D01*
X16635269Y-6882144D01*
X16635269Y-6952856D01*
X16705981Y-6952856D01*
X18155981Y-6452856D02*
X18155981Y-6382144D01*
X18085269Y-6382144D01*
X18085269Y-6452856D01*
X18155981Y-6452856D01*
X18155981Y-6952856D02*
X18155981Y-6882144D01*
X18085269Y-6882144D01*
X18085269Y-6952856D01*
X18155981Y-6952856D01*
D13*
X10052875Y-6742500D02*
X10127875Y-6667500D01*
X10052875Y-6592500D01*
X9977875Y-6667500D01*
X10052875Y-6742500D01*
X10052875Y-8631625D02*
X10127875Y-8556625D01*
X10052875Y-8481625D01*
X9977875Y-8556625D01*
X10052875Y-8631625D01*
X10687875Y-6488500D02*
X10762875Y-6413500D01*
X10687875Y-6338500D01*
X10612875Y-6413500D01*
X10687875Y-6488500D01*
X10687875Y-8377625D02*
X10762875Y-8302625D01*
X10687875Y-8227625D01*
X10612875Y-8302625D01*
X10687875Y-8377625D01*
X11734750Y-6742500D02*
X11809750Y-6667500D01*
X11734750Y-6592500D01*
X11659750Y-6667500D01*
X11734750Y-6742500D01*
X11734750Y-8631625D02*
X11809750Y-8556625D01*
X11734750Y-8481625D01*
X11659750Y-8556625D01*
X11734750Y-8631625D01*
X12369750Y-6488500D02*
X12444750Y-6413500D01*
X12369750Y-6338500D01*
X12294750Y-6413500D01*
X12369750Y-6488500D01*
X12369750Y-8377625D02*
X12444750Y-8302625D01*
X12369750Y-8227625D01*
X12294750Y-8302625D01*
X12369750Y-8377625D01*
X13418375Y-6742500D02*
X13493375Y-6667500D01*
X13418375Y-6592500D01*
X13343375Y-6667500D01*
X13418375Y-6742500D01*
X13418375Y-8631625D02*
X13493375Y-8556625D01*
X13418375Y-8481625D01*
X13343375Y-8556625D01*
X13418375Y-8631625D01*
X14053375Y-6488500D02*
X14128375Y-6413500D01*
X14053375Y-6338500D01*
X13978375Y-6413500D01*
X14053375Y-6488500D01*
X14053375Y-8377625D02*
X14128375Y-8302625D01*
X14053375Y-8227625D01*
X13978375Y-8302625D01*
X14053375Y-8377625D01*
X15150500Y-6742500D02*
X15225500Y-6667500D01*
X15150500Y-6592500D01*
X15075500Y-6667500D01*
X15150500Y-6742500D01*
X15150500Y-8631625D02*
X15225500Y-8556625D01*
X15150500Y-8481625D01*
X15075500Y-8556625D01*
X15150500Y-8631625D01*
X15785500Y-6488500D02*
X15860500Y-6413500D01*
X15785500Y-6338500D01*
X15710500Y-6413500D01*
X15785500Y-6488500D01*
X15785500Y-8377625D02*
X15860500Y-8302625D01*
X15785500Y-8227625D01*
X15710500Y-8302625D01*
X15785500Y-8377625D01*
X17420625Y-6182500D02*
X17495625Y-6107500D01*
X17420625Y-6032500D01*
X17345625Y-6107500D01*
X17420625Y-6182500D01*
D12*
X17355625Y-6182500D02*
X17485625Y-6182500D01*
X17485625Y-6032500D02*
G75*
G02*
X17485625Y-6182500I0J-75000D01*
G01*
X17485625Y-6032500D02*
X17355625Y-6032500D01*
X17355625Y-6032500D02*
G75*
G03*
X17355625Y-6182500I0J-75000D01*
G01*
D13*
X17420625Y-7302500D02*
X17495625Y-7227500D01*
X17420625Y-7152500D01*
X17345625Y-7227500D01*
X17420625Y-7302500D01*
D12*
X17355625Y-7302500D02*
X17485625Y-7302500D01*
X17485625Y-7152500D02*
G75*
G02*
X17485625Y-7302500I0J-75000D01*
G01*
X17485625Y-7152500D02*
X17355625Y-7152500D01*
X17355625Y-7152500D02*
G75*
G03*
X17355625Y-7302500I0J-75000D01*
G01*
D11*
X8830777Y-10077109D02*
X8830777Y-9877109D01*
X8830777Y-9877109D02*
X8878396Y-9877109D01*
X8878396Y-9877109D02*
X8906967Y-9886633D01*
X8906967Y-9886633D02*
X8926015Y-9905680D01*
X8926015Y-9905680D02*
X8935539Y-9924728D01*
X8935539Y-9924728D02*
X8945063Y-9962823D01*
X8945063Y-9962823D02*
X8945063Y-9991395D01*
X8945063Y-9991395D02*
X8935539Y-10029490D01*
X8935539Y-10029490D02*
X8926015Y-10048537D01*
X8926015Y-10048537D02*
X8906967Y-10067585D01*
X8906967Y-10067585D02*
X8878396Y-10077109D01*
X8878396Y-10077109D02*
X8830777Y-10077109D01*
X9030777Y-10077109D02*
X9030777Y-9943775D01*
X9030777Y-9981871D02*
X9040301Y-9962823D01*
X9040301Y-9962823D02*
X9049824Y-9953299D01*
X9049824Y-9953299D02*
X9068872Y-9943775D01*
X9068872Y-9943775D02*
X9087920Y-9943775D01*
X9154586Y-10077109D02*
X9154586Y-9943775D01*
X9154586Y-9877109D02*
X9145063Y-9886633D01*
X9145063Y-9886633D02*
X9154586Y-9896156D01*
X9154586Y-9896156D02*
X9164110Y-9886633D01*
X9164110Y-9886633D02*
X9154586Y-9877109D01*
X9154586Y-9877109D02*
X9154586Y-9896156D01*
X9278396Y-10077109D02*
X9259348Y-10067585D01*
X9259348Y-10067585D02*
X9249824Y-10048537D01*
X9249824Y-10048537D02*
X9249824Y-9877109D01*
X9383158Y-10077109D02*
X9364110Y-10067585D01*
X9364110Y-10067585D02*
X9354586Y-10048537D01*
X9354586Y-10048537D02*
X9354586Y-9877109D01*
X9611729Y-10077109D02*
X9611729Y-9877109D01*
X9611729Y-9877109D02*
X9678396Y-10019966D01*
X9678396Y-10019966D02*
X9745063Y-9877109D01*
X9745063Y-9877109D02*
X9745063Y-10077109D01*
X9926015Y-10077109D02*
X9926015Y-9972347D01*
X9926015Y-9972347D02*
X9916491Y-9953299D01*
X9916491Y-9953299D02*
X9897444Y-9943775D01*
X9897444Y-9943775D02*
X9859348Y-9943775D01*
X9859348Y-9943775D02*
X9840301Y-9953299D01*
X9926015Y-10067585D02*
X9906967Y-10077109D01*
X9906967Y-10077109D02*
X9859348Y-10077109D01*
X9859348Y-10077109D02*
X9840301Y-10067585D01*
X9840301Y-10067585D02*
X9830777Y-10048537D01*
X9830777Y-10048537D02*
X9830777Y-10029490D01*
X9830777Y-10029490D02*
X9840301Y-10010442D01*
X9840301Y-10010442D02*
X9859348Y-10000918D01*
X9859348Y-10000918D02*
X9906967Y-10000918D01*
X9906967Y-10000918D02*
X9926015Y-9991395D01*
X10021253Y-9943775D02*
X10021253Y-10143775D01*
X10021253Y-9953299D02*
X10040301Y-9943775D01*
X10040301Y-9943775D02*
X10078396Y-9943775D01*
X10078396Y-9943775D02*
X10097444Y-9953299D01*
X10097444Y-9953299D02*
X10106967Y-9962823D01*
X10106967Y-9962823D02*
X10116491Y-9981871D01*
X10116491Y-9981871D02*
X10116491Y-10039014D01*
X10116491Y-10039014D02*
X10106967Y-10058061D01*
X10106967Y-10058061D02*
X10097444Y-10067585D01*
X10097444Y-10067585D02*
X10078396Y-10077109D01*
X10078396Y-10077109D02*
X10040301Y-10077109D01*
X10040301Y-10077109D02*
X10021253Y-10067585D01*
X10202205Y-10058061D02*
X10211729Y-10067585D01*
X10211729Y-10067585D02*
X10202205Y-10077109D01*
X10202205Y-10077109D02*
X10192682Y-10067585D01*
X10192682Y-10067585D02*
X10202205Y-10058061D01*
X10202205Y-10058061D02*
X10202205Y-10077109D01*
X10202205Y-9953299D02*
X10211729Y-9962823D01*
X10211729Y-9962823D02*
X10202205Y-9972347D01*
X10202205Y-9972347D02*
X10192682Y-9962823D01*
X10192682Y-9962823D02*
X10202205Y-9953299D01*
X10202205Y-9953299D02*
X10202205Y-9972347D01*
D12*
X8540000Y-10390625D02*
X8570000Y-10420625D01*
X8570000Y-10390625D02*
X8540000Y-10420625D01*
D11*
X8868872Y-10297109D02*
X8887920Y-10297109D01*
X8887920Y-10297109D02*
X8906967Y-10306633D01*
X8906967Y-10306633D02*
X8916491Y-10316156D01*
X8916491Y-10316156D02*
X8926015Y-10335204D01*
X8926015Y-10335204D02*
X8935539Y-10373299D01*
X8935539Y-10373299D02*
X8935539Y-10420918D01*
X8935539Y-10420918D02*
X8926015Y-10459014D01*
X8926015Y-10459014D02*
X8916491Y-10478061D01*
X8916491Y-10478061D02*
X8906967Y-10487585D01*
X8906967Y-10487585D02*
X8887920Y-10497109D01*
X8887920Y-10497109D02*
X8868872Y-10497109D01*
X8868872Y-10497109D02*
X8849824Y-10487585D01*
X8849824Y-10487585D02*
X8840301Y-10478061D01*
X8840301Y-10478061D02*
X8830777Y-10459014D01*
X8830777Y-10459014D02*
X8821253Y-10420918D01*
X8821253Y-10420918D02*
X8821253Y-10373299D01*
X8821253Y-10373299D02*
X8830777Y-10335204D01*
X8830777Y-10335204D02*
X8840301Y-10316156D01*
X8840301Y-10316156D02*
X8849824Y-10306633D01*
X8849824Y-10306633D02*
X8868872Y-10297109D01*
X9021253Y-10478061D02*
X9030777Y-10487585D01*
X9030777Y-10487585D02*
X9021253Y-10497109D01*
X9021253Y-10497109D02*
X9011729Y-10487585D01*
X9011729Y-10487585D02*
X9021253Y-10478061D01*
X9021253Y-10478061D02*
X9021253Y-10497109D01*
X9097444Y-10297109D02*
X9221253Y-10297109D01*
X9221253Y-10297109D02*
X9154586Y-10373299D01*
X9154586Y-10373299D02*
X9183158Y-10373299D01*
X9183158Y-10373299D02*
X9202205Y-10382823D01*
X9202205Y-10382823D02*
X9211729Y-10392347D01*
X9211729Y-10392347D02*
X9221253Y-10411395D01*
X9221253Y-10411395D02*
X9221253Y-10459014D01*
X9221253Y-10459014D02*
X9211729Y-10478061D01*
X9211729Y-10478061D02*
X9202205Y-10487585D01*
X9202205Y-10487585D02*
X9183158Y-10497109D01*
X9183158Y-10497109D02*
X9126015Y-10497109D01*
X9126015Y-10497109D02*
X9106967Y-10487585D01*
X9106967Y-10487585D02*
X9097444Y-10478061D01*
X9345063Y-10297109D02*
X9364110Y-10297109D01*
X9364110Y-10297109D02*
X9383158Y-10306633D01*
X9383158Y-10306633D02*
X9392682Y-10316156D01*
X9392682Y-10316156D02*
X9402205Y-10335204D01*
X9402205Y-10335204D02*
X9411729Y-10373299D01*
X9411729Y-10373299D02*
X9411729Y-10420918D01*
X9411729Y-10420918D02*
X9402205Y-10459014D01*
X9402205Y-10459014D02*
X9392682Y-10478061D01*
X9392682Y-10478061D02*
X9383158Y-10487585D01*
X9383158Y-10487585D02*
X9364110Y-10497109D01*
X9364110Y-10497109D02*
X9345063Y-10497109D01*
X9345063Y-10497109D02*
X9326015Y-10487585D01*
X9326015Y-10487585D02*
X9316491Y-10478061D01*
X9316491Y-10478061D02*
X9306967Y-10459014D01*
X9306967Y-10459014D02*
X9297444Y-10420918D01*
X9297444Y-10420918D02*
X9297444Y-10373299D01*
X9297444Y-10373299D02*
X9306967Y-10335204D01*
X9306967Y-10335204D02*
X9316491Y-10316156D01*
X9316491Y-10316156D02*
X9326015Y-10306633D01*
X9326015Y-10306633D02*
X9345063Y-10297109D01*
X9535539Y-10297109D02*
X9554586Y-10297109D01*
X9554586Y-10297109D02*
X9573634Y-10306633D01*
X9573634Y-10306633D02*
X9583158Y-10316156D01*
X9583158Y-10316156D02*
X9592682Y-10335204D01*
X9592682Y-10335204D02*
X9602205Y-10373299D01*
X9602205Y-10373299D02*
X9602205Y-10420918D01*
X9602205Y-10420918D02*
X9592682Y-10459014D01*
X9592682Y-10459014D02*
X9583158Y-10478061D01*
X9583158Y-10478061D02*
X9573634Y-10487585D01*
X9573634Y-10487585D02*
X9554586Y-10497109D01*
X9554586Y-10497109D02*
X9535539Y-10497109D01*
X9535539Y-10497109D02*
X9516491Y-10487585D01*
X9516491Y-10487585D02*
X9506967Y-10478061D01*
X9506967Y-10478061D02*
X9497444Y-10459014D01*
X9497444Y-10459014D02*
X9487920Y-10420918D01*
X9487920Y-10420918D02*
X9487920Y-10373299D01*
X9487920Y-10373299D02*
X9497444Y-10335204D01*
X9497444Y-10335204D02*
X9506967Y-10316156D01*
X9506967Y-10316156D02*
X9516491Y-10306633D01*
X9516491Y-10306633D02*
X9535539Y-10297109D01*
X9687920Y-10497109D02*
X9687920Y-10363775D01*
X9687920Y-10382823D02*
X9697444Y-10373299D01*
X9697444Y-10373299D02*
X9716491Y-10363775D01*
X9716491Y-10363775D02*
X9745063Y-10363775D01*
X9745063Y-10363775D02*
X9764110Y-10373299D01*
X9764110Y-10373299D02*
X9773634Y-10392347D01*
X9773634Y-10392347D02*
X9773634Y-10497109D01*
X9773634Y-10392347D02*
X9783158Y-10373299D01*
X9783158Y-10373299D02*
X9802205Y-10363775D01*
X9802205Y-10363775D02*
X9830777Y-10363775D01*
X9830777Y-10363775D02*
X9849825Y-10373299D01*
X9849825Y-10373299D02*
X9859348Y-10392347D01*
X9859348Y-10392347D02*
X9859348Y-10497109D01*
X9954586Y-10497109D02*
X9954586Y-10363775D01*
X9954586Y-10382823D02*
X9964110Y-10373299D01*
X9964110Y-10373299D02*
X9983158Y-10363775D01*
X9983158Y-10363775D02*
X10011729Y-10363775D01*
X10011729Y-10363775D02*
X10030777Y-10373299D01*
X10030777Y-10373299D02*
X10040301Y-10392347D01*
X10040301Y-10392347D02*
X10040301Y-10497109D01*
X10040301Y-10392347D02*
X10049825Y-10373299D01*
X10049825Y-10373299D02*
X10068872Y-10363775D01*
X10068872Y-10363775D02*
X10097444Y-10363775D01*
X10097444Y-10363775D02*
X10116491Y-10373299D01*
X10116491Y-10373299D02*
X10126015Y-10392347D01*
X10126015Y-10392347D02*
X10126015Y-10497109D01*
X10516491Y-10287585D02*
X10345063Y-10544728D01*
X10773634Y-10297109D02*
X10792682Y-10297109D01*
X10792682Y-10297109D02*
X10811729Y-10306633D01*
X10811729Y-10306633D02*
X10821253Y-10316156D01*
X10821253Y-10316156D02*
X10830777Y-10335204D01*
X10830777Y-10335204D02*
X10840301Y-10373299D01*
X10840301Y-10373299D02*
X10840301Y-10420918D01*
X10840301Y-10420918D02*
X10830777Y-10459014D01*
X10830777Y-10459014D02*
X10821253Y-10478061D01*
X10821253Y-10478061D02*
X10811729Y-10487585D01*
X10811729Y-10487585D02*
X10792682Y-10497109D01*
X10792682Y-10497109D02*
X10773634Y-10497109D01*
X10773634Y-10497109D02*
X10754587Y-10487585D01*
X10754587Y-10487585D02*
X10745063Y-10478061D01*
X10745063Y-10478061D02*
X10735539Y-10459014D01*
X10735539Y-10459014D02*
X10726015Y-10420918D01*
X10726015Y-10420918D02*
X10726015Y-10373299D01*
X10726015Y-10373299D02*
X10735539Y-10335204D01*
X10735539Y-10335204D02*
X10745063Y-10316156D01*
X10745063Y-10316156D02*
X10754587Y-10306633D01*
X10754587Y-10306633D02*
X10773634Y-10297109D01*
X10926015Y-10478061D02*
X10935539Y-10487585D01*
X10935539Y-10487585D02*
X10926015Y-10497109D01*
X10926015Y-10497109D02*
X10916491Y-10487585D01*
X10916491Y-10487585D02*
X10926015Y-10478061D01*
X10926015Y-10478061D02*
X10926015Y-10497109D01*
X11059348Y-10297109D02*
X11078396Y-10297109D01*
X11078396Y-10297109D02*
X11097444Y-10306633D01*
X11097444Y-10306633D02*
X11106968Y-10316156D01*
X11106968Y-10316156D02*
X11116491Y-10335204D01*
X11116491Y-10335204D02*
X11126015Y-10373299D01*
X11126015Y-10373299D02*
X11126015Y-10420918D01*
X11126015Y-10420918D02*
X11116491Y-10459014D01*
X11116491Y-10459014D02*
X11106968Y-10478061D01*
X11106968Y-10478061D02*
X11097444Y-10487585D01*
X11097444Y-10487585D02*
X11078396Y-10497109D01*
X11078396Y-10497109D02*
X11059348Y-10497109D01*
X11059348Y-10497109D02*
X11040301Y-10487585D01*
X11040301Y-10487585D02*
X11030777Y-10478061D01*
X11030777Y-10478061D02*
X11021253Y-10459014D01*
X11021253Y-10459014D02*
X11011729Y-10420918D01*
X11011729Y-10420918D02*
X11011729Y-10373299D01*
X11011729Y-10373299D02*
X11021253Y-10335204D01*
X11021253Y-10335204D02*
X11030777Y-10316156D01*
X11030777Y-10316156D02*
X11040301Y-10306633D01*
X11040301Y-10306633D02*
X11059348Y-10297109D01*
X11316491Y-10497109D02*
X11202206Y-10497109D01*
X11259348Y-10497109D02*
X11259348Y-10297109D01*
X11259348Y-10297109D02*
X11240301Y-10325680D01*
X11240301Y-10325680D02*
X11221253Y-10344728D01*
X11221253Y-10344728D02*
X11202206Y-10354252D01*
X11506967Y-10497109D02*
X11392682Y-10497109D01*
X11449825Y-10497109D02*
X11449825Y-10297109D01*
X11449825Y-10297109D02*
X11430777Y-10325680D01*
X11430777Y-10325680D02*
X11411729Y-10344728D01*
X11411729Y-10344728D02*
X11392682Y-10354252D01*
X11621253Y-10382823D02*
X11602206Y-10373299D01*
X11602206Y-10373299D02*
X11592682Y-10363775D01*
X11592682Y-10363775D02*
X11583158Y-10344728D01*
X11583158Y-10344728D02*
X11583158Y-10335204D01*
X11583158Y-10335204D02*
X11592682Y-10316156D01*
X11592682Y-10316156D02*
X11602206Y-10306633D01*
X11602206Y-10306633D02*
X11621253Y-10297109D01*
X11621253Y-10297109D02*
X11659348Y-10297109D01*
X11659348Y-10297109D02*
X11678396Y-10306633D01*
X11678396Y-10306633D02*
X11687920Y-10316156D01*
X11687920Y-10316156D02*
X11697444Y-10335204D01*
X11697444Y-10335204D02*
X11697444Y-10344728D01*
X11697444Y-10344728D02*
X11687920Y-10363775D01*
X11687920Y-10363775D02*
X11678396Y-10373299D01*
X11678396Y-10373299D02*
X11659348Y-10382823D01*
X11659348Y-10382823D02*
X11621253Y-10382823D01*
X11621253Y-10382823D02*
X11602206Y-10392347D01*
X11602206Y-10392347D02*
X11592682Y-10401871D01*
X11592682Y-10401871D02*
X11583158Y-10420918D01*
X11583158Y-10420918D02*
X11583158Y-10459014D01*
X11583158Y-10459014D02*
X11592682Y-10478061D01*
X11592682Y-10478061D02*
X11602206Y-10487585D01*
X11602206Y-10487585D02*
X11621253Y-10497109D01*
X11621253Y-10497109D02*
X11659348Y-10497109D01*
X11659348Y-10497109D02*
X11678396Y-10487585D01*
X11678396Y-10487585D02*
X11687920Y-10478061D01*
X11687920Y-10478061D02*
X11697444Y-10459014D01*
X11697444Y-10459014D02*
X11697444Y-10420918D01*
X11697444Y-10420918D02*
X11687920Y-10401871D01*
X11687920Y-10401871D02*
X11678396Y-10392347D01*
X11678396Y-10392347D02*
X11659348Y-10382823D01*
X11773634Y-10297109D02*
X11773634Y-10335204D01*
X11849825Y-10297109D02*
X11849825Y-10335204D01*
X12145063Y-10573299D02*
X12135539Y-10563775D01*
X12135539Y-10563775D02*
X12116491Y-10535204D01*
X12116491Y-10535204D02*
X12106968Y-10516156D01*
X12106968Y-10516156D02*
X12097444Y-10487585D01*
X12097444Y-10487585D02*
X12087920Y-10439966D01*
X12087920Y-10439966D02*
X12087920Y-10401871D01*
X12087920Y-10401871D02*
X12097444Y-10354252D01*
X12097444Y-10354252D02*
X12106968Y-10325680D01*
X12106968Y-10325680D02*
X12116491Y-10306633D01*
X12116491Y-10306633D02*
X12135539Y-10278061D01*
X12135539Y-10278061D02*
X12145063Y-10268537D01*
X12326015Y-10497109D02*
X12211729Y-10497109D01*
X12268872Y-10497109D02*
X12268872Y-10297109D01*
X12268872Y-10297109D02*
X12249825Y-10325680D01*
X12249825Y-10325680D02*
X12230777Y-10344728D01*
X12230777Y-10344728D02*
X12211729Y-10354252D01*
X12564110Y-10497109D02*
X12564110Y-10297109D01*
X12649825Y-10497109D02*
X12649825Y-10392347D01*
X12649825Y-10392347D02*
X12640301Y-10373299D01*
X12640301Y-10373299D02*
X12621253Y-10363775D01*
X12621253Y-10363775D02*
X12592682Y-10363775D01*
X12592682Y-10363775D02*
X12573634Y-10373299D01*
X12573634Y-10373299D02*
X12564110Y-10382823D01*
X12773634Y-10497109D02*
X12754587Y-10487585D01*
X12754587Y-10487585D02*
X12745063Y-10478061D01*
X12745063Y-10478061D02*
X12735539Y-10459014D01*
X12735539Y-10459014D02*
X12735539Y-10401871D01*
X12735539Y-10401871D02*
X12745063Y-10382823D01*
X12745063Y-10382823D02*
X12754587Y-10373299D01*
X12754587Y-10373299D02*
X12773634Y-10363775D01*
X12773634Y-10363775D02*
X12802206Y-10363775D01*
X12802206Y-10363775D02*
X12821253Y-10373299D01*
X12821253Y-10373299D02*
X12830777Y-10382823D01*
X12830777Y-10382823D02*
X12840301Y-10401871D01*
X12840301Y-10401871D02*
X12840301Y-10459014D01*
X12840301Y-10459014D02*
X12830777Y-10478061D01*
X12830777Y-10478061D02*
X12821253Y-10487585D01*
X12821253Y-10487585D02*
X12802206Y-10497109D01*
X12802206Y-10497109D02*
X12773634Y-10497109D01*
X12954587Y-10497109D02*
X12935539Y-10487585D01*
X12935539Y-10487585D02*
X12926015Y-10468537D01*
X12926015Y-10468537D02*
X12926015Y-10297109D01*
X13106968Y-10487585D02*
X13087920Y-10497109D01*
X13087920Y-10497109D02*
X13049825Y-10497109D01*
X13049825Y-10497109D02*
X13030777Y-10487585D01*
X13030777Y-10487585D02*
X13021253Y-10468537D01*
X13021253Y-10468537D02*
X13021253Y-10392347D01*
X13021253Y-10392347D02*
X13030777Y-10373299D01*
X13030777Y-10373299D02*
X13049825Y-10363775D01*
X13049825Y-10363775D02*
X13087920Y-10363775D01*
X13087920Y-10363775D02*
X13106968Y-10373299D01*
X13106968Y-10373299D02*
X13116491Y-10392347D01*
X13116491Y-10392347D02*
X13116491Y-10411395D01*
X13116491Y-10411395D02*
X13021253Y-10430442D01*
X13183158Y-10573299D02*
X13192682Y-10563775D01*
X13192682Y-10563775D02*
X13211730Y-10535204D01*
X13211730Y-10535204D02*
X13221253Y-10516156D01*
X13221253Y-10516156D02*
X13230777Y-10487585D01*
X13230777Y-10487585D02*
X13240301Y-10439966D01*
X13240301Y-10439966D02*
X13240301Y-10401871D01*
X13240301Y-10401871D02*
X13230777Y-10354252D01*
X13230777Y-10354252D02*
X13221253Y-10325680D01*
X13221253Y-10325680D02*
X13211730Y-10306633D01*
X13211730Y-10306633D02*
X13192682Y-10278061D01*
X13192682Y-10278061D02*
X13183158Y-10268537D01*
D12*
X8570000Y-10669625D02*
G75*
G02*
X8490000Y-10669625I-40000J0D01*
G01*
X8490000Y-10669625D02*
G75*
G02*
X8570000Y-10669625I40000J0D01*
G01*
D11*
X8868872Y-10561109D02*
X8887920Y-10561109D01*
X8887920Y-10561109D02*
X8906967Y-10570633D01*
X8906967Y-10570633D02*
X8916491Y-10580156D01*
X8916491Y-10580156D02*
X8926015Y-10599204D01*
X8926015Y-10599204D02*
X8935539Y-10637299D01*
X8935539Y-10637299D02*
X8935539Y-10684918D01*
X8935539Y-10684918D02*
X8926015Y-10723014D01*
X8926015Y-10723014D02*
X8916491Y-10742061D01*
X8916491Y-10742061D02*
X8906967Y-10751585D01*
X8906967Y-10751585D02*
X8887920Y-10761109D01*
X8887920Y-10761109D02*
X8868872Y-10761109D01*
X8868872Y-10761109D02*
X8849824Y-10751585D01*
X8849824Y-10751585D02*
X8840301Y-10742061D01*
X8840301Y-10742061D02*
X8830777Y-10723014D01*
X8830777Y-10723014D02*
X8821253Y-10684918D01*
X8821253Y-10684918D02*
X8821253Y-10637299D01*
X8821253Y-10637299D02*
X8830777Y-10599204D01*
X8830777Y-10599204D02*
X8840301Y-10580156D01*
X8840301Y-10580156D02*
X8849824Y-10570633D01*
X8849824Y-10570633D02*
X8868872Y-10561109D01*
X9021253Y-10742061D02*
X9030777Y-10751585D01*
X9030777Y-10751585D02*
X9021253Y-10761109D01*
X9021253Y-10761109D02*
X9011729Y-10751585D01*
X9011729Y-10751585D02*
X9021253Y-10742061D01*
X9021253Y-10742061D02*
X9021253Y-10761109D01*
X9145063Y-10646823D02*
X9126015Y-10637299D01*
X9126015Y-10637299D02*
X9116491Y-10627775D01*
X9116491Y-10627775D02*
X9106967Y-10608728D01*
X9106967Y-10608728D02*
X9106967Y-10599204D01*
X9106967Y-10599204D02*
X9116491Y-10580156D01*
X9116491Y-10580156D02*
X9126015Y-10570633D01*
X9126015Y-10570633D02*
X9145063Y-10561109D01*
X9145063Y-10561109D02*
X9183158Y-10561109D01*
X9183158Y-10561109D02*
X9202205Y-10570633D01*
X9202205Y-10570633D02*
X9211729Y-10580156D01*
X9211729Y-10580156D02*
X9221253Y-10599204D01*
X9221253Y-10599204D02*
X9221253Y-10608728D01*
X9221253Y-10608728D02*
X9211729Y-10627775D01*
X9211729Y-10627775D02*
X9202205Y-10637299D01*
X9202205Y-10637299D02*
X9183158Y-10646823D01*
X9183158Y-10646823D02*
X9145063Y-10646823D01*
X9145063Y-10646823D02*
X9126015Y-10656347D01*
X9126015Y-10656347D02*
X9116491Y-10665871D01*
X9116491Y-10665871D02*
X9106967Y-10684918D01*
X9106967Y-10684918D02*
X9106967Y-10723014D01*
X9106967Y-10723014D02*
X9116491Y-10742061D01*
X9116491Y-10742061D02*
X9126015Y-10751585D01*
X9126015Y-10751585D02*
X9145063Y-10761109D01*
X9145063Y-10761109D02*
X9183158Y-10761109D01*
X9183158Y-10761109D02*
X9202205Y-10751585D01*
X9202205Y-10751585D02*
X9211729Y-10742061D01*
X9211729Y-10742061D02*
X9221253Y-10723014D01*
X9221253Y-10723014D02*
X9221253Y-10684918D01*
X9221253Y-10684918D02*
X9211729Y-10665871D01*
X9211729Y-10665871D02*
X9202205Y-10656347D01*
X9202205Y-10656347D02*
X9183158Y-10646823D01*
X9345063Y-10561109D02*
X9364110Y-10561109D01*
X9364110Y-10561109D02*
X9383158Y-10570633D01*
X9383158Y-10570633D02*
X9392682Y-10580156D01*
X9392682Y-10580156D02*
X9402205Y-10599204D01*
X9402205Y-10599204D02*
X9411729Y-10637299D01*
X9411729Y-10637299D02*
X9411729Y-10684918D01*
X9411729Y-10684918D02*
X9402205Y-10723014D01*
X9402205Y-10723014D02*
X9392682Y-10742061D01*
X9392682Y-10742061D02*
X9383158Y-10751585D01*
X9383158Y-10751585D02*
X9364110Y-10761109D01*
X9364110Y-10761109D02*
X9345063Y-10761109D01*
X9345063Y-10761109D02*
X9326015Y-10751585D01*
X9326015Y-10751585D02*
X9316491Y-10742061D01*
X9316491Y-10742061D02*
X9306967Y-10723014D01*
X9306967Y-10723014D02*
X9297444Y-10684918D01*
X9297444Y-10684918D02*
X9297444Y-10637299D01*
X9297444Y-10637299D02*
X9306967Y-10599204D01*
X9306967Y-10599204D02*
X9316491Y-10580156D01*
X9316491Y-10580156D02*
X9326015Y-10570633D01*
X9326015Y-10570633D02*
X9345063Y-10561109D01*
X9535539Y-10561109D02*
X9554586Y-10561109D01*
X9554586Y-10561109D02*
X9573634Y-10570633D01*
X9573634Y-10570633D02*
X9583158Y-10580156D01*
X9583158Y-10580156D02*
X9592682Y-10599204D01*
X9592682Y-10599204D02*
X9602205Y-10637299D01*
X9602205Y-10637299D02*
X9602205Y-10684918D01*
X9602205Y-10684918D02*
X9592682Y-10723014D01*
X9592682Y-10723014D02*
X9583158Y-10742061D01*
X9583158Y-10742061D02*
X9573634Y-10751585D01*
X9573634Y-10751585D02*
X9554586Y-10761109D01*
X9554586Y-10761109D02*
X9535539Y-10761109D01*
X9535539Y-10761109D02*
X9516491Y-10751585D01*
X9516491Y-10751585D02*
X9506967Y-10742061D01*
X9506967Y-10742061D02*
X9497444Y-10723014D01*
X9497444Y-10723014D02*
X9487920Y-10684918D01*
X9487920Y-10684918D02*
X9487920Y-10637299D01*
X9487920Y-10637299D02*
X9497444Y-10599204D01*
X9497444Y-10599204D02*
X9506967Y-10580156D01*
X9506967Y-10580156D02*
X9516491Y-10570633D01*
X9516491Y-10570633D02*
X9535539Y-10561109D01*
X9687920Y-10761109D02*
X9687920Y-10627775D01*
X9687920Y-10646823D02*
X9697444Y-10637299D01*
X9697444Y-10637299D02*
X9716491Y-10627775D01*
X9716491Y-10627775D02*
X9745063Y-10627775D01*
X9745063Y-10627775D02*
X9764110Y-10637299D01*
X9764110Y-10637299D02*
X9773634Y-10656347D01*
X9773634Y-10656347D02*
X9773634Y-10761109D01*
X9773634Y-10656347D02*
X9783158Y-10637299D01*
X9783158Y-10637299D02*
X9802205Y-10627775D01*
X9802205Y-10627775D02*
X9830777Y-10627775D01*
X9830777Y-10627775D02*
X9849825Y-10637299D01*
X9849825Y-10637299D02*
X9859348Y-10656347D01*
X9859348Y-10656347D02*
X9859348Y-10761109D01*
X9954586Y-10761109D02*
X9954586Y-10627775D01*
X9954586Y-10646823D02*
X9964110Y-10637299D01*
X9964110Y-10637299D02*
X9983158Y-10627775D01*
X9983158Y-10627775D02*
X10011729Y-10627775D01*
X10011729Y-10627775D02*
X10030777Y-10637299D01*
X10030777Y-10637299D02*
X10040301Y-10656347D01*
X10040301Y-10656347D02*
X10040301Y-10761109D01*
X10040301Y-10656347D02*
X10049825Y-10637299D01*
X10049825Y-10637299D02*
X10068872Y-10627775D01*
X10068872Y-10627775D02*
X10097444Y-10627775D01*
X10097444Y-10627775D02*
X10116491Y-10637299D01*
X10116491Y-10637299D02*
X10126015Y-10656347D01*
X10126015Y-10656347D02*
X10126015Y-10761109D01*
X10516491Y-10551585D02*
X10345063Y-10808728D01*
X10773634Y-10561109D02*
X10792682Y-10561109D01*
X10792682Y-10561109D02*
X10811729Y-10570633D01*
X10811729Y-10570633D02*
X10821253Y-10580156D01*
X10821253Y-10580156D02*
X10830777Y-10599204D01*
X10830777Y-10599204D02*
X10840301Y-10637299D01*
X10840301Y-10637299D02*
X10840301Y-10684918D01*
X10840301Y-10684918D02*
X10830777Y-10723014D01*
X10830777Y-10723014D02*
X10821253Y-10742061D01*
X10821253Y-10742061D02*
X10811729Y-10751585D01*
X10811729Y-10751585D02*
X10792682Y-10761109D01*
X10792682Y-10761109D02*
X10773634Y-10761109D01*
X10773634Y-10761109D02*
X10754587Y-10751585D01*
X10754587Y-10751585D02*
X10745063Y-10742061D01*
X10745063Y-10742061D02*
X10735539Y-10723014D01*
X10735539Y-10723014D02*
X10726015Y-10684918D01*
X10726015Y-10684918D02*
X10726015Y-10637299D01*
X10726015Y-10637299D02*
X10735539Y-10599204D01*
X10735539Y-10599204D02*
X10745063Y-10580156D01*
X10745063Y-10580156D02*
X10754587Y-10570633D01*
X10754587Y-10570633D02*
X10773634Y-10561109D01*
X10926015Y-10742061D02*
X10935539Y-10751585D01*
X10935539Y-10751585D02*
X10926015Y-10761109D01*
X10926015Y-10761109D02*
X10916491Y-10751585D01*
X10916491Y-10751585D02*
X10926015Y-10742061D01*
X10926015Y-10742061D02*
X10926015Y-10761109D01*
X11059348Y-10561109D02*
X11078396Y-10561109D01*
X11078396Y-10561109D02*
X11097444Y-10570633D01*
X11097444Y-10570633D02*
X11106968Y-10580156D01*
X11106968Y-10580156D02*
X11116491Y-10599204D01*
X11116491Y-10599204D02*
X11126015Y-10637299D01*
X11126015Y-10637299D02*
X11126015Y-10684918D01*
X11126015Y-10684918D02*
X11116491Y-10723014D01*
X11116491Y-10723014D02*
X11106968Y-10742061D01*
X11106968Y-10742061D02*
X11097444Y-10751585D01*
X11097444Y-10751585D02*
X11078396Y-10761109D01*
X11078396Y-10761109D02*
X11059348Y-10761109D01*
X11059348Y-10761109D02*
X11040301Y-10751585D01*
X11040301Y-10751585D02*
X11030777Y-10742061D01*
X11030777Y-10742061D02*
X11021253Y-10723014D01*
X11021253Y-10723014D02*
X11011729Y-10684918D01*
X11011729Y-10684918D02*
X11011729Y-10637299D01*
X11011729Y-10637299D02*
X11021253Y-10599204D01*
X11021253Y-10599204D02*
X11030777Y-10580156D01*
X11030777Y-10580156D02*
X11040301Y-10570633D01*
X11040301Y-10570633D02*
X11059348Y-10561109D01*
X11192682Y-10561109D02*
X11316491Y-10561109D01*
X11316491Y-10561109D02*
X11249825Y-10637299D01*
X11249825Y-10637299D02*
X11278396Y-10637299D01*
X11278396Y-10637299D02*
X11297444Y-10646823D01*
X11297444Y-10646823D02*
X11306967Y-10656347D01*
X11306967Y-10656347D02*
X11316491Y-10675395D01*
X11316491Y-10675395D02*
X11316491Y-10723014D01*
X11316491Y-10723014D02*
X11306967Y-10742061D01*
X11306967Y-10742061D02*
X11297444Y-10751585D01*
X11297444Y-10751585D02*
X11278396Y-10761109D01*
X11278396Y-10761109D02*
X11221253Y-10761109D01*
X11221253Y-10761109D02*
X11202206Y-10751585D01*
X11202206Y-10751585D02*
X11192682Y-10742061D01*
X11506967Y-10761109D02*
X11392682Y-10761109D01*
X11449825Y-10761109D02*
X11449825Y-10561109D01*
X11449825Y-10561109D02*
X11430777Y-10589680D01*
X11430777Y-10589680D02*
X11411729Y-10608728D01*
X11411729Y-10608728D02*
X11392682Y-10618252D01*
X11687920Y-10561109D02*
X11592682Y-10561109D01*
X11592682Y-10561109D02*
X11583158Y-10656347D01*
X11583158Y-10656347D02*
X11592682Y-10646823D01*
X11592682Y-10646823D02*
X11611729Y-10637299D01*
X11611729Y-10637299D02*
X11659348Y-10637299D01*
X11659348Y-10637299D02*
X11678396Y-10646823D01*
X11678396Y-10646823D02*
X11687920Y-10656347D01*
X11687920Y-10656347D02*
X11697444Y-10675395D01*
X11697444Y-10675395D02*
X11697444Y-10723014D01*
X11697444Y-10723014D02*
X11687920Y-10742061D01*
X11687920Y-10742061D02*
X11678396Y-10751585D01*
X11678396Y-10751585D02*
X11659348Y-10761109D01*
X11659348Y-10761109D02*
X11611729Y-10761109D01*
X11611729Y-10761109D02*
X11592682Y-10751585D01*
X11592682Y-10751585D02*
X11583158Y-10742061D01*
X11773634Y-10561109D02*
X11773634Y-10599204D01*
X11849825Y-10561109D02*
X11849825Y-10599204D01*
X12145063Y-10837299D02*
X12135539Y-10827775D01*
X12135539Y-10827775D02*
X12116491Y-10799204D01*
X12116491Y-10799204D02*
X12106968Y-10780156D01*
X12106968Y-10780156D02*
X12097444Y-10751585D01*
X12097444Y-10751585D02*
X12087920Y-10703966D01*
X12087920Y-10703966D02*
X12087920Y-10665871D01*
X12087920Y-10665871D02*
X12097444Y-10618252D01*
X12097444Y-10618252D02*
X12106968Y-10589680D01*
X12106968Y-10589680D02*
X12116491Y-10570633D01*
X12116491Y-10570633D02*
X12135539Y-10542061D01*
X12135539Y-10542061D02*
X12145063Y-10532537D01*
X12326015Y-10761109D02*
X12211729Y-10761109D01*
X12268872Y-10761109D02*
X12268872Y-10561109D01*
X12268872Y-10561109D02*
X12249825Y-10589680D01*
X12249825Y-10589680D02*
X12230777Y-10608728D01*
X12230777Y-10608728D02*
X12211729Y-10618252D01*
X12497444Y-10561109D02*
X12459348Y-10561109D01*
X12459348Y-10561109D02*
X12440301Y-10570633D01*
X12440301Y-10570633D02*
X12430777Y-10580156D01*
X12430777Y-10580156D02*
X12411729Y-10608728D01*
X12411729Y-10608728D02*
X12402206Y-10646823D01*
X12402206Y-10646823D02*
X12402206Y-10723014D01*
X12402206Y-10723014D02*
X12411729Y-10742061D01*
X12411729Y-10742061D02*
X12421253Y-10751585D01*
X12421253Y-10751585D02*
X12440301Y-10761109D01*
X12440301Y-10761109D02*
X12478396Y-10761109D01*
X12478396Y-10761109D02*
X12497444Y-10751585D01*
X12497444Y-10751585D02*
X12506968Y-10742061D01*
X12506968Y-10742061D02*
X12516491Y-10723014D01*
X12516491Y-10723014D02*
X12516491Y-10675395D01*
X12516491Y-10675395D02*
X12506968Y-10656347D01*
X12506968Y-10656347D02*
X12497444Y-10646823D01*
X12497444Y-10646823D02*
X12478396Y-10637299D01*
X12478396Y-10637299D02*
X12440301Y-10637299D01*
X12440301Y-10637299D02*
X12421253Y-10646823D01*
X12421253Y-10646823D02*
X12411729Y-10656347D01*
X12411729Y-10656347D02*
X12402206Y-10675395D01*
X12754587Y-10761109D02*
X12754587Y-10561109D01*
X12840301Y-10761109D02*
X12840301Y-10656347D01*
X12840301Y-10656347D02*
X12830777Y-10637299D01*
X12830777Y-10637299D02*
X12811730Y-10627775D01*
X12811730Y-10627775D02*
X12783158Y-10627775D01*
X12783158Y-10627775D02*
X12764110Y-10637299D01*
X12764110Y-10637299D02*
X12754587Y-10646823D01*
X12964110Y-10761109D02*
X12945063Y-10751585D01*
X12945063Y-10751585D02*
X12935539Y-10742061D01*
X12935539Y-10742061D02*
X12926015Y-10723014D01*
X12926015Y-10723014D02*
X12926015Y-10665871D01*
X12926015Y-10665871D02*
X12935539Y-10646823D01*
X12935539Y-10646823D02*
X12945063Y-10637299D01*
X12945063Y-10637299D02*
X12964110Y-10627775D01*
X12964110Y-10627775D02*
X12992682Y-10627775D01*
X12992682Y-10627775D02*
X13011730Y-10637299D01*
X13011730Y-10637299D02*
X13021253Y-10646823D01*
X13021253Y-10646823D02*
X13030777Y-10665871D01*
X13030777Y-10665871D02*
X13030777Y-10723014D01*
X13030777Y-10723014D02*
X13021253Y-10742061D01*
X13021253Y-10742061D02*
X13011730Y-10751585D01*
X13011730Y-10751585D02*
X12992682Y-10761109D01*
X12992682Y-10761109D02*
X12964110Y-10761109D01*
X13145063Y-10761109D02*
X13126015Y-10751585D01*
X13126015Y-10751585D02*
X13116491Y-10732537D01*
X13116491Y-10732537D02*
X13116491Y-10561109D01*
X13297444Y-10751585D02*
X13278396Y-10761109D01*
X13278396Y-10761109D02*
X13240301Y-10761109D01*
X13240301Y-10761109D02*
X13221253Y-10751585D01*
X13221253Y-10751585D02*
X13211730Y-10732537D01*
X13211730Y-10732537D02*
X13211730Y-10656347D01*
X13211730Y-10656347D02*
X13221253Y-10637299D01*
X13221253Y-10637299D02*
X13240301Y-10627775D01*
X13240301Y-10627775D02*
X13278396Y-10627775D01*
X13278396Y-10627775D02*
X13297444Y-10637299D01*
X13297444Y-10637299D02*
X13306968Y-10656347D01*
X13306968Y-10656347D02*
X13306968Y-10675395D01*
X13306968Y-10675395D02*
X13211730Y-10694442D01*
X13383158Y-10751585D02*
X13402206Y-10761109D01*
X13402206Y-10761109D02*
X13440301Y-10761109D01*
X13440301Y-10761109D02*
X13459349Y-10751585D01*
X13459349Y-10751585D02*
X13468872Y-10732537D01*
X13468872Y-10732537D02*
X13468872Y-10723014D01*
X13468872Y-10723014D02*
X13459349Y-10703966D01*
X13459349Y-10703966D02*
X13440301Y-10694442D01*
X13440301Y-10694442D02*
X13411730Y-10694442D01*
X13411730Y-10694442D02*
X13392682Y-10684918D01*
X13392682Y-10684918D02*
X13383158Y-10665871D01*
X13383158Y-10665871D02*
X13383158Y-10656347D01*
X13383158Y-10656347D02*
X13392682Y-10637299D01*
X13392682Y-10637299D02*
X13411730Y-10627775D01*
X13411730Y-10627775D02*
X13440301Y-10627775D01*
X13440301Y-10627775D02*
X13459349Y-10637299D01*
X13535539Y-10837299D02*
X13545063Y-10827775D01*
X13545063Y-10827775D02*
X13564111Y-10799204D01*
X13564111Y-10799204D02*
X13573634Y-10780156D01*
X13573634Y-10780156D02*
X13583158Y-10751585D01*
X13583158Y-10751585D02*
X13592682Y-10703966D01*
X13592682Y-10703966D02*
X13592682Y-10665871D01*
X13592682Y-10665871D02*
X13583158Y-10618252D01*
X13583158Y-10618252D02*
X13573634Y-10589680D01*
X13573634Y-10589680D02*
X13564111Y-10570633D01*
X13564111Y-10570633D02*
X13545063Y-10542061D01*
X13545063Y-10542061D02*
X13535539Y-10532537D01*
D12*
X8525550Y-10889175D02*
X8525550Y-10978075D01*
X8481100Y-10933625D02*
X8570000Y-10933625D01*
D11*
X8868872Y-10825109D02*
X8887920Y-10825109D01*
X8887920Y-10825109D02*
X8906967Y-10834633D01*
X8906967Y-10834633D02*
X8916491Y-10844156D01*
X8916491Y-10844156D02*
X8926015Y-10863204D01*
X8926015Y-10863204D02*
X8935539Y-10901299D01*
X8935539Y-10901299D02*
X8935539Y-10948918D01*
X8935539Y-10948918D02*
X8926015Y-10987014D01*
X8926015Y-10987014D02*
X8916491Y-11006061D01*
X8916491Y-11006061D02*
X8906967Y-11015585D01*
X8906967Y-11015585D02*
X8887920Y-11025109D01*
X8887920Y-11025109D02*
X8868872Y-11025109D01*
X8868872Y-11025109D02*
X8849824Y-11015585D01*
X8849824Y-11015585D02*
X8840301Y-11006061D01*
X8840301Y-11006061D02*
X8830777Y-10987014D01*
X8830777Y-10987014D02*
X8821253Y-10948918D01*
X8821253Y-10948918D02*
X8821253Y-10901299D01*
X8821253Y-10901299D02*
X8830777Y-10863204D01*
X8830777Y-10863204D02*
X8840301Y-10844156D01*
X8840301Y-10844156D02*
X8849824Y-10834633D01*
X8849824Y-10834633D02*
X8868872Y-10825109D01*
X9021253Y-11006061D02*
X9030777Y-11015585D01*
X9030777Y-11015585D02*
X9021253Y-11025109D01*
X9021253Y-11025109D02*
X9011729Y-11015585D01*
X9011729Y-11015585D02*
X9021253Y-11006061D01*
X9021253Y-11006061D02*
X9021253Y-11025109D01*
X9145063Y-10910823D02*
X9126015Y-10901299D01*
X9126015Y-10901299D02*
X9116491Y-10891775D01*
X9116491Y-10891775D02*
X9106967Y-10872728D01*
X9106967Y-10872728D02*
X9106967Y-10863204D01*
X9106967Y-10863204D02*
X9116491Y-10844156D01*
X9116491Y-10844156D02*
X9126015Y-10834633D01*
X9126015Y-10834633D02*
X9145063Y-10825109D01*
X9145063Y-10825109D02*
X9183158Y-10825109D01*
X9183158Y-10825109D02*
X9202205Y-10834633D01*
X9202205Y-10834633D02*
X9211729Y-10844156D01*
X9211729Y-10844156D02*
X9221253Y-10863204D01*
X9221253Y-10863204D02*
X9221253Y-10872728D01*
X9221253Y-10872728D02*
X9211729Y-10891775D01*
X9211729Y-10891775D02*
X9202205Y-10901299D01*
X9202205Y-10901299D02*
X9183158Y-10910823D01*
X9183158Y-10910823D02*
X9145063Y-10910823D01*
X9145063Y-10910823D02*
X9126015Y-10920347D01*
X9126015Y-10920347D02*
X9116491Y-10929871D01*
X9116491Y-10929871D02*
X9106967Y-10948918D01*
X9106967Y-10948918D02*
X9106967Y-10987014D01*
X9106967Y-10987014D02*
X9116491Y-11006061D01*
X9116491Y-11006061D02*
X9126015Y-11015585D01*
X9126015Y-11015585D02*
X9145063Y-11025109D01*
X9145063Y-11025109D02*
X9183158Y-11025109D01*
X9183158Y-11025109D02*
X9202205Y-11015585D01*
X9202205Y-11015585D02*
X9211729Y-11006061D01*
X9211729Y-11006061D02*
X9221253Y-10987014D01*
X9221253Y-10987014D02*
X9221253Y-10948918D01*
X9221253Y-10948918D02*
X9211729Y-10929871D01*
X9211729Y-10929871D02*
X9202205Y-10920347D01*
X9202205Y-10920347D02*
X9183158Y-10910823D01*
X9335539Y-10910823D02*
X9316491Y-10901299D01*
X9316491Y-10901299D02*
X9306967Y-10891775D01*
X9306967Y-10891775D02*
X9297444Y-10872728D01*
X9297444Y-10872728D02*
X9297444Y-10863204D01*
X9297444Y-10863204D02*
X9306967Y-10844156D01*
X9306967Y-10844156D02*
X9316491Y-10834633D01*
X9316491Y-10834633D02*
X9335539Y-10825109D01*
X9335539Y-10825109D02*
X9373634Y-10825109D01*
X9373634Y-10825109D02*
X9392682Y-10834633D01*
X9392682Y-10834633D02*
X9402205Y-10844156D01*
X9402205Y-10844156D02*
X9411729Y-10863204D01*
X9411729Y-10863204D02*
X9411729Y-10872728D01*
X9411729Y-10872728D02*
X9402205Y-10891775D01*
X9402205Y-10891775D02*
X9392682Y-10901299D01*
X9392682Y-10901299D02*
X9373634Y-10910823D01*
X9373634Y-10910823D02*
X9335539Y-10910823D01*
X9335539Y-10910823D02*
X9316491Y-10920347D01*
X9316491Y-10920347D02*
X9306967Y-10929871D01*
X9306967Y-10929871D02*
X9297444Y-10948918D01*
X9297444Y-10948918D02*
X9297444Y-10987014D01*
X9297444Y-10987014D02*
X9306967Y-11006061D01*
X9306967Y-11006061D02*
X9316491Y-11015585D01*
X9316491Y-11015585D02*
X9335539Y-11025109D01*
X9335539Y-11025109D02*
X9373634Y-11025109D01*
X9373634Y-11025109D02*
X9392682Y-11015585D01*
X9392682Y-11015585D02*
X9402205Y-11006061D01*
X9402205Y-11006061D02*
X9411729Y-10987014D01*
X9411729Y-10987014D02*
X9411729Y-10948918D01*
X9411729Y-10948918D02*
X9402205Y-10929871D01*
X9402205Y-10929871D02*
X9392682Y-10920347D01*
X9392682Y-10920347D02*
X9373634Y-10910823D01*
X9506967Y-11025109D02*
X9545063Y-11025109D01*
X9545063Y-11025109D02*
X9564110Y-11015585D01*
X9564110Y-11015585D02*
X9573634Y-11006061D01*
X9573634Y-11006061D02*
X9592682Y-10977490D01*
X9592682Y-10977490D02*
X9602205Y-10939395D01*
X9602205Y-10939395D02*
X9602205Y-10863204D01*
X9602205Y-10863204D02*
X9592682Y-10844156D01*
X9592682Y-10844156D02*
X9583158Y-10834633D01*
X9583158Y-10834633D02*
X9564110Y-10825109D01*
X9564110Y-10825109D02*
X9526015Y-10825109D01*
X9526015Y-10825109D02*
X9506967Y-10834633D01*
X9506967Y-10834633D02*
X9497444Y-10844156D01*
X9497444Y-10844156D02*
X9487920Y-10863204D01*
X9487920Y-10863204D02*
X9487920Y-10910823D01*
X9487920Y-10910823D02*
X9497444Y-10929871D01*
X9497444Y-10929871D02*
X9506967Y-10939395D01*
X9506967Y-10939395D02*
X9526015Y-10948918D01*
X9526015Y-10948918D02*
X9564110Y-10948918D01*
X9564110Y-10948918D02*
X9583158Y-10939395D01*
X9583158Y-10939395D02*
X9592682Y-10929871D01*
X9592682Y-10929871D02*
X9602205Y-10910823D01*
X9687920Y-11025109D02*
X9687920Y-10891775D01*
X9687920Y-10910823D02*
X9697444Y-10901299D01*
X9697444Y-10901299D02*
X9716491Y-10891775D01*
X9716491Y-10891775D02*
X9745063Y-10891775D01*
X9745063Y-10891775D02*
X9764110Y-10901299D01*
X9764110Y-10901299D02*
X9773634Y-10920347D01*
X9773634Y-10920347D02*
X9773634Y-11025109D01*
X9773634Y-10920347D02*
X9783158Y-10901299D01*
X9783158Y-10901299D02*
X9802205Y-10891775D01*
X9802205Y-10891775D02*
X9830777Y-10891775D01*
X9830777Y-10891775D02*
X9849825Y-10901299D01*
X9849825Y-10901299D02*
X9859348Y-10920347D01*
X9859348Y-10920347D02*
X9859348Y-11025109D01*
X9954586Y-11025109D02*
X9954586Y-10891775D01*
X9954586Y-10910823D02*
X9964110Y-10901299D01*
X9964110Y-10901299D02*
X9983158Y-10891775D01*
X9983158Y-10891775D02*
X10011729Y-10891775D01*
X10011729Y-10891775D02*
X10030777Y-10901299D01*
X10030777Y-10901299D02*
X10040301Y-10920347D01*
X10040301Y-10920347D02*
X10040301Y-11025109D01*
X10040301Y-10920347D02*
X10049825Y-10901299D01*
X10049825Y-10901299D02*
X10068872Y-10891775D01*
X10068872Y-10891775D02*
X10097444Y-10891775D01*
X10097444Y-10891775D02*
X10116491Y-10901299D01*
X10116491Y-10901299D02*
X10126015Y-10920347D01*
X10126015Y-10920347D02*
X10126015Y-11025109D01*
X10516491Y-10815585D02*
X10345063Y-11072728D01*
X10773634Y-10825109D02*
X10792682Y-10825109D01*
X10792682Y-10825109D02*
X10811729Y-10834633D01*
X10811729Y-10834633D02*
X10821253Y-10844156D01*
X10821253Y-10844156D02*
X10830777Y-10863204D01*
X10830777Y-10863204D02*
X10840301Y-10901299D01*
X10840301Y-10901299D02*
X10840301Y-10948918D01*
X10840301Y-10948918D02*
X10830777Y-10987014D01*
X10830777Y-10987014D02*
X10821253Y-11006061D01*
X10821253Y-11006061D02*
X10811729Y-11015585D01*
X10811729Y-11015585D02*
X10792682Y-11025109D01*
X10792682Y-11025109D02*
X10773634Y-11025109D01*
X10773634Y-11025109D02*
X10754587Y-11015585D01*
X10754587Y-11015585D02*
X10745063Y-11006061D01*
X10745063Y-11006061D02*
X10735539Y-10987014D01*
X10735539Y-10987014D02*
X10726015Y-10948918D01*
X10726015Y-10948918D02*
X10726015Y-10901299D01*
X10726015Y-10901299D02*
X10735539Y-10863204D01*
X10735539Y-10863204D02*
X10745063Y-10844156D01*
X10745063Y-10844156D02*
X10754587Y-10834633D01*
X10754587Y-10834633D02*
X10773634Y-10825109D01*
X10926015Y-11006061D02*
X10935539Y-11015585D01*
X10935539Y-11015585D02*
X10926015Y-11025109D01*
X10926015Y-11025109D02*
X10916491Y-11015585D01*
X10916491Y-11015585D02*
X10926015Y-11006061D01*
X10926015Y-11006061D02*
X10926015Y-11025109D01*
X11059348Y-10825109D02*
X11078396Y-10825109D01*
X11078396Y-10825109D02*
X11097444Y-10834633D01*
X11097444Y-10834633D02*
X11106968Y-10844156D01*
X11106968Y-10844156D02*
X11116491Y-10863204D01*
X11116491Y-10863204D02*
X11126015Y-10901299D01*
X11126015Y-10901299D02*
X11126015Y-10948918D01*
X11126015Y-10948918D02*
X11116491Y-10987014D01*
X11116491Y-10987014D02*
X11106968Y-11006061D01*
X11106968Y-11006061D02*
X11097444Y-11015585D01*
X11097444Y-11015585D02*
X11078396Y-11025109D01*
X11078396Y-11025109D02*
X11059348Y-11025109D01*
X11059348Y-11025109D02*
X11040301Y-11015585D01*
X11040301Y-11015585D02*
X11030777Y-11006061D01*
X11030777Y-11006061D02*
X11021253Y-10987014D01*
X11021253Y-10987014D02*
X11011729Y-10948918D01*
X11011729Y-10948918D02*
X11011729Y-10901299D01*
X11011729Y-10901299D02*
X11021253Y-10863204D01*
X11021253Y-10863204D02*
X11030777Y-10844156D01*
X11030777Y-10844156D02*
X11040301Y-10834633D01*
X11040301Y-10834633D02*
X11059348Y-10825109D01*
X11192682Y-10825109D02*
X11316491Y-10825109D01*
X11316491Y-10825109D02*
X11249825Y-10901299D01*
X11249825Y-10901299D02*
X11278396Y-10901299D01*
X11278396Y-10901299D02*
X11297444Y-10910823D01*
X11297444Y-10910823D02*
X11306967Y-10920347D01*
X11306967Y-10920347D02*
X11316491Y-10939395D01*
X11316491Y-10939395D02*
X11316491Y-10987014D01*
X11316491Y-10987014D02*
X11306967Y-11006061D01*
X11306967Y-11006061D02*
X11297444Y-11015585D01*
X11297444Y-11015585D02*
X11278396Y-11025109D01*
X11278396Y-11025109D02*
X11221253Y-11025109D01*
X11221253Y-11025109D02*
X11202206Y-11015585D01*
X11202206Y-11015585D02*
X11192682Y-11006061D01*
X11497444Y-10825109D02*
X11402206Y-10825109D01*
X11402206Y-10825109D02*
X11392682Y-10920347D01*
X11392682Y-10920347D02*
X11402206Y-10910823D01*
X11402206Y-10910823D02*
X11421253Y-10901299D01*
X11421253Y-10901299D02*
X11468872Y-10901299D01*
X11468872Y-10901299D02*
X11487920Y-10910823D01*
X11487920Y-10910823D02*
X11497444Y-10920347D01*
X11497444Y-10920347D02*
X11506967Y-10939395D01*
X11506967Y-10939395D02*
X11506967Y-10987014D01*
X11506967Y-10987014D02*
X11497444Y-11006061D01*
X11497444Y-11006061D02*
X11487920Y-11015585D01*
X11487920Y-11015585D02*
X11468872Y-11025109D01*
X11468872Y-11025109D02*
X11421253Y-11025109D01*
X11421253Y-11025109D02*
X11402206Y-11015585D01*
X11402206Y-11015585D02*
X11392682Y-11006061D01*
X11630777Y-10825109D02*
X11649825Y-10825109D01*
X11649825Y-10825109D02*
X11668872Y-10834633D01*
X11668872Y-10834633D02*
X11678396Y-10844156D01*
X11678396Y-10844156D02*
X11687920Y-10863204D01*
X11687920Y-10863204D02*
X11697444Y-10901299D01*
X11697444Y-10901299D02*
X11697444Y-10948918D01*
X11697444Y-10948918D02*
X11687920Y-10987014D01*
X11687920Y-10987014D02*
X11678396Y-11006061D01*
X11678396Y-11006061D02*
X11668872Y-11015585D01*
X11668872Y-11015585D02*
X11649825Y-11025109D01*
X11649825Y-11025109D02*
X11630777Y-11025109D01*
X11630777Y-11025109D02*
X11611729Y-11015585D01*
X11611729Y-11015585D02*
X11602206Y-11006061D01*
X11602206Y-11006061D02*
X11592682Y-10987014D01*
X11592682Y-10987014D02*
X11583158Y-10948918D01*
X11583158Y-10948918D02*
X11583158Y-10901299D01*
X11583158Y-10901299D02*
X11592682Y-10863204D01*
X11592682Y-10863204D02*
X11602206Y-10844156D01*
X11602206Y-10844156D02*
X11611729Y-10834633D01*
X11611729Y-10834633D02*
X11630777Y-10825109D01*
X11773634Y-10825109D02*
X11773634Y-10863204D01*
X11849825Y-10825109D02*
X11849825Y-10863204D01*
X12145063Y-11101299D02*
X12135539Y-11091775D01*
X12135539Y-11091775D02*
X12116491Y-11063204D01*
X12116491Y-11063204D02*
X12106968Y-11044156D01*
X12106968Y-11044156D02*
X12097444Y-11015585D01*
X12097444Y-11015585D02*
X12087920Y-10967966D01*
X12087920Y-10967966D02*
X12087920Y-10929871D01*
X12087920Y-10929871D02*
X12097444Y-10882252D01*
X12097444Y-10882252D02*
X12106968Y-10853680D01*
X12106968Y-10853680D02*
X12116491Y-10834633D01*
X12116491Y-10834633D02*
X12135539Y-10806061D01*
X12135539Y-10806061D02*
X12145063Y-10796537D01*
X12326015Y-11025109D02*
X12211729Y-11025109D01*
X12268872Y-11025109D02*
X12268872Y-10825109D01*
X12268872Y-10825109D02*
X12249825Y-10853680D01*
X12249825Y-10853680D02*
X12230777Y-10872728D01*
X12230777Y-10872728D02*
X12211729Y-10882252D01*
X12497444Y-10891775D02*
X12497444Y-11025109D01*
X12449825Y-10815585D02*
X12402206Y-10958442D01*
X12402206Y-10958442D02*
X12526015Y-10958442D01*
X12754587Y-11025109D02*
X12754587Y-10825109D01*
X12840301Y-11025109D02*
X12840301Y-10920347D01*
X12840301Y-10920347D02*
X12830777Y-10901299D01*
X12830777Y-10901299D02*
X12811730Y-10891775D01*
X12811730Y-10891775D02*
X12783158Y-10891775D01*
X12783158Y-10891775D02*
X12764110Y-10901299D01*
X12764110Y-10901299D02*
X12754587Y-10910823D01*
X12964110Y-11025109D02*
X12945063Y-11015585D01*
X12945063Y-11015585D02*
X12935539Y-11006061D01*
X12935539Y-11006061D02*
X12926015Y-10987014D01*
X12926015Y-10987014D02*
X12926015Y-10929871D01*
X12926015Y-10929871D02*
X12935539Y-10910823D01*
X12935539Y-10910823D02*
X12945063Y-10901299D01*
X12945063Y-10901299D02*
X12964110Y-10891775D01*
X12964110Y-10891775D02*
X12992682Y-10891775D01*
X12992682Y-10891775D02*
X13011730Y-10901299D01*
X13011730Y-10901299D02*
X13021253Y-10910823D01*
X13021253Y-10910823D02*
X13030777Y-10929871D01*
X13030777Y-10929871D02*
X13030777Y-10987014D01*
X13030777Y-10987014D02*
X13021253Y-11006061D01*
X13021253Y-11006061D02*
X13011730Y-11015585D01*
X13011730Y-11015585D02*
X12992682Y-11025109D01*
X12992682Y-11025109D02*
X12964110Y-11025109D01*
X13145063Y-11025109D02*
X13126015Y-11015585D01*
X13126015Y-11015585D02*
X13116491Y-10996537D01*
X13116491Y-10996537D02*
X13116491Y-10825109D01*
X13297444Y-11015585D02*
X13278396Y-11025109D01*
X13278396Y-11025109D02*
X13240301Y-11025109D01*
X13240301Y-11025109D02*
X13221253Y-11015585D01*
X13221253Y-11015585D02*
X13211730Y-10996537D01*
X13211730Y-10996537D02*
X13211730Y-10920347D01*
X13211730Y-10920347D02*
X13221253Y-10901299D01*
X13221253Y-10901299D02*
X13240301Y-10891775D01*
X13240301Y-10891775D02*
X13278396Y-10891775D01*
X13278396Y-10891775D02*
X13297444Y-10901299D01*
X13297444Y-10901299D02*
X13306968Y-10920347D01*
X13306968Y-10920347D02*
X13306968Y-10939395D01*
X13306968Y-10939395D02*
X13211730Y-10958442D01*
X13383158Y-11015585D02*
X13402206Y-11025109D01*
X13402206Y-11025109D02*
X13440301Y-11025109D01*
X13440301Y-11025109D02*
X13459349Y-11015585D01*
X13459349Y-11015585D02*
X13468872Y-10996537D01*
X13468872Y-10996537D02*
X13468872Y-10987014D01*
X13468872Y-10987014D02*
X13459349Y-10967966D01*
X13459349Y-10967966D02*
X13440301Y-10958442D01*
X13440301Y-10958442D02*
X13411730Y-10958442D01*
X13411730Y-10958442D02*
X13392682Y-10948918D01*
X13392682Y-10948918D02*
X13383158Y-10929871D01*
X13383158Y-10929871D02*
X13383158Y-10920347D01*
X13383158Y-10920347D02*
X13392682Y-10901299D01*
X13392682Y-10901299D02*
X13411730Y-10891775D01*
X13411730Y-10891775D02*
X13440301Y-10891775D01*
X13440301Y-10891775D02*
X13459349Y-10901299D01*
X13535539Y-11101299D02*
X13545063Y-11091775D01*
X13545063Y-11091775D02*
X13564111Y-11063204D01*
X13564111Y-11063204D02*
X13573634Y-11044156D01*
X13573634Y-11044156D02*
X13583158Y-11015585D01*
X13583158Y-11015585D02*
X13592682Y-10967966D01*
X13592682Y-10967966D02*
X13592682Y-10929871D01*
X13592682Y-10929871D02*
X13583158Y-10882252D01*
X13583158Y-10882252D02*
X13573634Y-10853680D01*
X13573634Y-10853680D02*
X13564111Y-10834633D01*
X13564111Y-10834633D02*
X13545063Y-10806061D01*
X13545063Y-10806061D02*
X13535539Y-10796537D01*
D12*
X8555356Y-11232981D02*
X8555356Y-11162269D01*
X8484644Y-11162269D01*
X8484644Y-11232981D01*
X8555356Y-11232981D01*
D11*
X8935539Y-11289109D02*
X8821253Y-11289109D01*
X8878396Y-11289109D02*
X8878396Y-11089109D01*
X8878396Y-11089109D02*
X8859348Y-11117680D01*
X8859348Y-11117680D02*
X8840301Y-11136728D01*
X8840301Y-11136728D02*
X8821253Y-11146252D01*
X9021253Y-11270061D02*
X9030777Y-11279585D01*
X9030777Y-11279585D02*
X9021253Y-11289109D01*
X9021253Y-11289109D02*
X9011729Y-11279585D01*
X9011729Y-11279585D02*
X9021253Y-11270061D01*
X9021253Y-11270061D02*
X9021253Y-11289109D01*
X9154586Y-11089109D02*
X9173634Y-11089109D01*
X9173634Y-11089109D02*
X9192682Y-11098633D01*
X9192682Y-11098633D02*
X9202205Y-11108156D01*
X9202205Y-11108156D02*
X9211729Y-11127204D01*
X9211729Y-11127204D02*
X9221253Y-11165299D01*
X9221253Y-11165299D02*
X9221253Y-11212918D01*
X9221253Y-11212918D02*
X9211729Y-11251013D01*
X9211729Y-11251013D02*
X9202205Y-11270061D01*
X9202205Y-11270061D02*
X9192682Y-11279585D01*
X9192682Y-11279585D02*
X9173634Y-11289109D01*
X9173634Y-11289109D02*
X9154586Y-11289109D01*
X9154586Y-11289109D02*
X9135539Y-11279585D01*
X9135539Y-11279585D02*
X9126015Y-11270061D01*
X9126015Y-11270061D02*
X9116491Y-11251013D01*
X9116491Y-11251013D02*
X9106967Y-11212918D01*
X9106967Y-11212918D02*
X9106967Y-11165299D01*
X9106967Y-11165299D02*
X9116491Y-11127204D01*
X9116491Y-11127204D02*
X9126015Y-11108156D01*
X9126015Y-11108156D02*
X9135539Y-11098633D01*
X9135539Y-11098633D02*
X9154586Y-11089109D01*
X9345063Y-11089109D02*
X9364110Y-11089109D01*
X9364110Y-11089109D02*
X9383158Y-11098633D01*
X9383158Y-11098633D02*
X9392682Y-11108156D01*
X9392682Y-11108156D02*
X9402205Y-11127204D01*
X9402205Y-11127204D02*
X9411729Y-11165299D01*
X9411729Y-11165299D02*
X9411729Y-11212918D01*
X9411729Y-11212918D02*
X9402205Y-11251013D01*
X9402205Y-11251013D02*
X9392682Y-11270061D01*
X9392682Y-11270061D02*
X9383158Y-11279585D01*
X9383158Y-11279585D02*
X9364110Y-11289109D01*
X9364110Y-11289109D02*
X9345063Y-11289109D01*
X9345063Y-11289109D02*
X9326015Y-11279585D01*
X9326015Y-11279585D02*
X9316491Y-11270061D01*
X9316491Y-11270061D02*
X9306967Y-11251013D01*
X9306967Y-11251013D02*
X9297444Y-11212918D01*
X9297444Y-11212918D02*
X9297444Y-11165299D01*
X9297444Y-11165299D02*
X9306967Y-11127204D01*
X9306967Y-11127204D02*
X9316491Y-11108156D01*
X9316491Y-11108156D02*
X9326015Y-11098633D01*
X9326015Y-11098633D02*
X9345063Y-11089109D01*
X9535539Y-11089109D02*
X9554586Y-11089109D01*
X9554586Y-11089109D02*
X9573634Y-11098633D01*
X9573634Y-11098633D02*
X9583158Y-11108156D01*
X9583158Y-11108156D02*
X9592682Y-11127204D01*
X9592682Y-11127204D02*
X9602205Y-11165299D01*
X9602205Y-11165299D02*
X9602205Y-11212918D01*
X9602205Y-11212918D02*
X9592682Y-11251013D01*
X9592682Y-11251013D02*
X9583158Y-11270061D01*
X9583158Y-11270061D02*
X9573634Y-11279585D01*
X9573634Y-11279585D02*
X9554586Y-11289109D01*
X9554586Y-11289109D02*
X9535539Y-11289109D01*
X9535539Y-11289109D02*
X9516491Y-11279585D01*
X9516491Y-11279585D02*
X9506967Y-11270061D01*
X9506967Y-11270061D02*
X9497444Y-11251013D01*
X9497444Y-11251013D02*
X9487920Y-11212918D01*
X9487920Y-11212918D02*
X9487920Y-11165299D01*
X9487920Y-11165299D02*
X9497444Y-11127204D01*
X9497444Y-11127204D02*
X9506967Y-11108156D01*
X9506967Y-11108156D02*
X9516491Y-11098633D01*
X9516491Y-11098633D02*
X9535539Y-11089109D01*
X9687920Y-11289109D02*
X9687920Y-11155775D01*
X9687920Y-11174823D02*
X9697444Y-11165299D01*
X9697444Y-11165299D02*
X9716491Y-11155775D01*
X9716491Y-11155775D02*
X9745063Y-11155775D01*
X9745063Y-11155775D02*
X9764110Y-11165299D01*
X9764110Y-11165299D02*
X9773634Y-11184347D01*
X9773634Y-11184347D02*
X9773634Y-11289109D01*
X9773634Y-11184347D02*
X9783158Y-11165299D01*
X9783158Y-11165299D02*
X9802205Y-11155775D01*
X9802205Y-11155775D02*
X9830777Y-11155775D01*
X9830777Y-11155775D02*
X9849825Y-11165299D01*
X9849825Y-11165299D02*
X9859348Y-11184347D01*
X9859348Y-11184347D02*
X9859348Y-11289109D01*
X9954586Y-11289109D02*
X9954586Y-11155775D01*
X9954586Y-11174823D02*
X9964110Y-11165299D01*
X9964110Y-11165299D02*
X9983158Y-11155775D01*
X9983158Y-11155775D02*
X10011729Y-11155775D01*
X10011729Y-11155775D02*
X10030777Y-11165299D01*
X10030777Y-11165299D02*
X10040301Y-11184347D01*
X10040301Y-11184347D02*
X10040301Y-11289109D01*
X10040301Y-11184347D02*
X10049825Y-11165299D01*
X10049825Y-11165299D02*
X10068872Y-11155775D01*
X10068872Y-11155775D02*
X10097444Y-11155775D01*
X10097444Y-11155775D02*
X10116491Y-11165299D01*
X10116491Y-11165299D02*
X10126015Y-11184347D01*
X10126015Y-11184347D02*
X10126015Y-11289109D01*
X10516491Y-11079585D02*
X10345063Y-11336728D01*
X10773634Y-11089109D02*
X10792682Y-11089109D01*
X10792682Y-11089109D02*
X10811729Y-11098633D01*
X10811729Y-11098633D02*
X10821253Y-11108156D01*
X10821253Y-11108156D02*
X10830777Y-11127204D01*
X10830777Y-11127204D02*
X10840301Y-11165299D01*
X10840301Y-11165299D02*
X10840301Y-11212918D01*
X10840301Y-11212918D02*
X10830777Y-11251013D01*
X10830777Y-11251013D02*
X10821253Y-11270061D01*
X10821253Y-11270061D02*
X10811729Y-11279585D01*
X10811729Y-11279585D02*
X10792682Y-11289109D01*
X10792682Y-11289109D02*
X10773634Y-11289109D01*
X10773634Y-11289109D02*
X10754587Y-11279585D01*
X10754587Y-11279585D02*
X10745063Y-11270061D01*
X10745063Y-11270061D02*
X10735539Y-11251013D01*
X10735539Y-11251013D02*
X10726015Y-11212918D01*
X10726015Y-11212918D02*
X10726015Y-11165299D01*
X10726015Y-11165299D02*
X10735539Y-11127204D01*
X10735539Y-11127204D02*
X10745063Y-11108156D01*
X10745063Y-11108156D02*
X10754587Y-11098633D01*
X10754587Y-11098633D02*
X10773634Y-11089109D01*
X10926015Y-11270061D02*
X10935539Y-11279585D01*
X10935539Y-11279585D02*
X10926015Y-11289109D01*
X10926015Y-11289109D02*
X10916491Y-11279585D01*
X10916491Y-11279585D02*
X10926015Y-11270061D01*
X10926015Y-11270061D02*
X10926015Y-11289109D01*
X11059348Y-11089109D02*
X11078396Y-11089109D01*
X11078396Y-11089109D02*
X11097444Y-11098633D01*
X11097444Y-11098633D02*
X11106968Y-11108156D01*
X11106968Y-11108156D02*
X11116491Y-11127204D01*
X11116491Y-11127204D02*
X11126015Y-11165299D01*
X11126015Y-11165299D02*
X11126015Y-11212918D01*
X11126015Y-11212918D02*
X11116491Y-11251013D01*
X11116491Y-11251013D02*
X11106968Y-11270061D01*
X11106968Y-11270061D02*
X11097444Y-11279585D01*
X11097444Y-11279585D02*
X11078396Y-11289109D01*
X11078396Y-11289109D02*
X11059348Y-11289109D01*
X11059348Y-11289109D02*
X11040301Y-11279585D01*
X11040301Y-11279585D02*
X11030777Y-11270061D01*
X11030777Y-11270061D02*
X11021253Y-11251013D01*
X11021253Y-11251013D02*
X11011729Y-11212918D01*
X11011729Y-11212918D02*
X11011729Y-11165299D01*
X11011729Y-11165299D02*
X11021253Y-11127204D01*
X11021253Y-11127204D02*
X11030777Y-11108156D01*
X11030777Y-11108156D02*
X11040301Y-11098633D01*
X11040301Y-11098633D02*
X11059348Y-11089109D01*
X11192682Y-11089109D02*
X11316491Y-11089109D01*
X11316491Y-11089109D02*
X11249825Y-11165299D01*
X11249825Y-11165299D02*
X11278396Y-11165299D01*
X11278396Y-11165299D02*
X11297444Y-11174823D01*
X11297444Y-11174823D02*
X11306967Y-11184347D01*
X11306967Y-11184347D02*
X11316491Y-11203394D01*
X11316491Y-11203394D02*
X11316491Y-11251013D01*
X11316491Y-11251013D02*
X11306967Y-11270061D01*
X11306967Y-11270061D02*
X11297444Y-11279585D01*
X11297444Y-11279585D02*
X11278396Y-11289109D01*
X11278396Y-11289109D02*
X11221253Y-11289109D01*
X11221253Y-11289109D02*
X11202206Y-11279585D01*
X11202206Y-11279585D02*
X11192682Y-11270061D01*
X11411729Y-11289109D02*
X11449825Y-11289109D01*
X11449825Y-11289109D02*
X11468872Y-11279585D01*
X11468872Y-11279585D02*
X11478396Y-11270061D01*
X11478396Y-11270061D02*
X11497444Y-11241490D01*
X11497444Y-11241490D02*
X11506967Y-11203394D01*
X11506967Y-11203394D02*
X11506967Y-11127204D01*
X11506967Y-11127204D02*
X11497444Y-11108156D01*
X11497444Y-11108156D02*
X11487920Y-11098633D01*
X11487920Y-11098633D02*
X11468872Y-11089109D01*
X11468872Y-11089109D02*
X11430777Y-11089109D01*
X11430777Y-11089109D02*
X11411729Y-11098633D01*
X11411729Y-11098633D02*
X11402206Y-11108156D01*
X11402206Y-11108156D02*
X11392682Y-11127204D01*
X11392682Y-11127204D02*
X11392682Y-11174823D01*
X11392682Y-11174823D02*
X11402206Y-11193871D01*
X11402206Y-11193871D02*
X11411729Y-11203394D01*
X11411729Y-11203394D02*
X11430777Y-11212918D01*
X11430777Y-11212918D02*
X11468872Y-11212918D01*
X11468872Y-11212918D02*
X11487920Y-11203394D01*
X11487920Y-11203394D02*
X11497444Y-11193871D01*
X11497444Y-11193871D02*
X11506967Y-11174823D01*
X11678396Y-11155775D02*
X11678396Y-11289109D01*
X11630777Y-11079585D02*
X11583158Y-11222442D01*
X11583158Y-11222442D02*
X11706967Y-11222442D01*
X11773634Y-11089109D02*
X11773634Y-11127204D01*
X11849825Y-11089109D02*
X11849825Y-11127204D01*
X12145063Y-11365299D02*
X12135539Y-11355775D01*
X12135539Y-11355775D02*
X12116491Y-11327204D01*
X12116491Y-11327204D02*
X12106968Y-11308156D01*
X12106968Y-11308156D02*
X12097444Y-11279585D01*
X12097444Y-11279585D02*
X12087920Y-11231966D01*
X12087920Y-11231966D02*
X12087920Y-11193871D01*
X12087920Y-11193871D02*
X12097444Y-11146252D01*
X12097444Y-11146252D02*
X12106968Y-11117680D01*
X12106968Y-11117680D02*
X12116491Y-11098633D01*
X12116491Y-11098633D02*
X12135539Y-11070061D01*
X12135539Y-11070061D02*
X12145063Y-11060537D01*
X12316491Y-11089109D02*
X12221253Y-11089109D01*
X12221253Y-11089109D02*
X12211729Y-11184347D01*
X12211729Y-11184347D02*
X12221253Y-11174823D01*
X12221253Y-11174823D02*
X12240301Y-11165299D01*
X12240301Y-11165299D02*
X12287920Y-11165299D01*
X12287920Y-11165299D02*
X12306968Y-11174823D01*
X12306968Y-11174823D02*
X12316491Y-11184347D01*
X12316491Y-11184347D02*
X12326015Y-11203394D01*
X12326015Y-11203394D02*
X12326015Y-11251013D01*
X12326015Y-11251013D02*
X12316491Y-11270061D01*
X12316491Y-11270061D02*
X12306968Y-11279585D01*
X12306968Y-11279585D02*
X12287920Y-11289109D01*
X12287920Y-11289109D02*
X12240301Y-11289109D01*
X12240301Y-11289109D02*
X12221253Y-11279585D01*
X12221253Y-11279585D02*
X12211729Y-11270061D01*
X12564110Y-11289109D02*
X12564110Y-11089109D01*
X12649825Y-11289109D02*
X12649825Y-11184347D01*
X12649825Y-11184347D02*
X12640301Y-11165299D01*
X12640301Y-11165299D02*
X12621253Y-11155775D01*
X12621253Y-11155775D02*
X12592682Y-11155775D01*
X12592682Y-11155775D02*
X12573634Y-11165299D01*
X12573634Y-11165299D02*
X12564110Y-11174823D01*
X12773634Y-11289109D02*
X12754587Y-11279585D01*
X12754587Y-11279585D02*
X12745063Y-11270061D01*
X12745063Y-11270061D02*
X12735539Y-11251013D01*
X12735539Y-11251013D02*
X12735539Y-11193871D01*
X12735539Y-11193871D02*
X12745063Y-11174823D01*
X12745063Y-11174823D02*
X12754587Y-11165299D01*
X12754587Y-11165299D02*
X12773634Y-11155775D01*
X12773634Y-11155775D02*
X12802206Y-11155775D01*
X12802206Y-11155775D02*
X12821253Y-11165299D01*
X12821253Y-11165299D02*
X12830777Y-11174823D01*
X12830777Y-11174823D02*
X12840301Y-11193871D01*
X12840301Y-11193871D02*
X12840301Y-11251013D01*
X12840301Y-11251013D02*
X12830777Y-11270061D01*
X12830777Y-11270061D02*
X12821253Y-11279585D01*
X12821253Y-11279585D02*
X12802206Y-11289109D01*
X12802206Y-11289109D02*
X12773634Y-11289109D01*
X12954587Y-11289109D02*
X12935539Y-11279585D01*
X12935539Y-11279585D02*
X12926015Y-11260537D01*
X12926015Y-11260537D02*
X12926015Y-11089109D01*
X13106968Y-11279585D02*
X13087920Y-11289109D01*
X13087920Y-11289109D02*
X13049825Y-11289109D01*
X13049825Y-11289109D02*
X13030777Y-11279585D01*
X13030777Y-11279585D02*
X13021253Y-11260537D01*
X13021253Y-11260537D02*
X13021253Y-11184347D01*
X13021253Y-11184347D02*
X13030777Y-11165299D01*
X13030777Y-11165299D02*
X13049825Y-11155775D01*
X13049825Y-11155775D02*
X13087920Y-11155775D01*
X13087920Y-11155775D02*
X13106968Y-11165299D01*
X13106968Y-11165299D02*
X13116491Y-11184347D01*
X13116491Y-11184347D02*
X13116491Y-11203394D01*
X13116491Y-11203394D02*
X13021253Y-11222442D01*
X13192682Y-11279585D02*
X13211730Y-11289109D01*
X13211730Y-11289109D02*
X13249825Y-11289109D01*
X13249825Y-11289109D02*
X13268872Y-11279585D01*
X13268872Y-11279585D02*
X13278396Y-11260537D01*
X13278396Y-11260537D02*
X13278396Y-11251013D01*
X13278396Y-11251013D02*
X13268872Y-11231966D01*
X13268872Y-11231966D02*
X13249825Y-11222442D01*
X13249825Y-11222442D02*
X13221253Y-11222442D01*
X13221253Y-11222442D02*
X13202206Y-11212918D01*
X13202206Y-11212918D02*
X13192682Y-11193871D01*
X13192682Y-11193871D02*
X13192682Y-11184347D01*
X13192682Y-11184347D02*
X13202206Y-11165299D01*
X13202206Y-11165299D02*
X13221253Y-11155775D01*
X13221253Y-11155775D02*
X13249825Y-11155775D01*
X13249825Y-11155775D02*
X13268872Y-11165299D01*
X13345063Y-11365299D02*
X13354587Y-11355775D01*
X13354587Y-11355775D02*
X13373634Y-11327204D01*
X13373634Y-11327204D02*
X13383158Y-11308156D01*
X13383158Y-11308156D02*
X13392682Y-11279585D01*
X13392682Y-11279585D02*
X13402206Y-11231966D01*
X13402206Y-11231966D02*
X13402206Y-11193871D01*
X13402206Y-11193871D02*
X13392682Y-11146252D01*
X13392682Y-11146252D02*
X13383158Y-11117680D01*
X13383158Y-11117680D02*
X13373634Y-11098633D01*
X13373634Y-11098633D02*
X13354587Y-11070061D01*
X13354587Y-11070061D02*
X13345063Y-11060537D01*
D13*
X8495000Y-11536625D02*
X8570000Y-11461625D01*
X8495000Y-11386625D01*
X8420000Y-11461625D01*
X8495000Y-11536625D01*
D11*
X8935539Y-11553109D02*
X8821253Y-11553109D01*
X8878396Y-11553109D02*
X8878396Y-11353109D01*
X8878396Y-11353109D02*
X8859348Y-11381680D01*
X8859348Y-11381680D02*
X8840301Y-11400728D01*
X8840301Y-11400728D02*
X8821253Y-11410252D01*
X9021253Y-11534061D02*
X9030777Y-11543585D01*
X9030777Y-11543585D02*
X9021253Y-11553109D01*
X9021253Y-11553109D02*
X9011729Y-11543585D01*
X9011729Y-11543585D02*
X9021253Y-11534061D01*
X9021253Y-11534061D02*
X9021253Y-11553109D01*
X9211729Y-11353109D02*
X9116491Y-11353109D01*
X9116491Y-11353109D02*
X9106967Y-11448347D01*
X9106967Y-11448347D02*
X9116491Y-11438823D01*
X9116491Y-11438823D02*
X9135539Y-11429299D01*
X9135539Y-11429299D02*
X9183158Y-11429299D01*
X9183158Y-11429299D02*
X9202205Y-11438823D01*
X9202205Y-11438823D02*
X9211729Y-11448347D01*
X9211729Y-11448347D02*
X9221253Y-11467394D01*
X9221253Y-11467394D02*
X9221253Y-11515013D01*
X9221253Y-11515013D02*
X9211729Y-11534061D01*
X9211729Y-11534061D02*
X9202205Y-11543585D01*
X9202205Y-11543585D02*
X9183158Y-11553109D01*
X9183158Y-11553109D02*
X9135539Y-11553109D01*
X9135539Y-11553109D02*
X9116491Y-11543585D01*
X9116491Y-11543585D02*
X9106967Y-11534061D01*
X9345063Y-11353109D02*
X9364110Y-11353109D01*
X9364110Y-11353109D02*
X9383158Y-11362633D01*
X9383158Y-11362633D02*
X9392682Y-11372156D01*
X9392682Y-11372156D02*
X9402205Y-11391204D01*
X9402205Y-11391204D02*
X9411729Y-11429299D01*
X9411729Y-11429299D02*
X9411729Y-11476918D01*
X9411729Y-11476918D02*
X9402205Y-11515013D01*
X9402205Y-11515013D02*
X9392682Y-11534061D01*
X9392682Y-11534061D02*
X9383158Y-11543585D01*
X9383158Y-11543585D02*
X9364110Y-11553109D01*
X9364110Y-11553109D02*
X9345063Y-11553109D01*
X9345063Y-11553109D02*
X9326015Y-11543585D01*
X9326015Y-11543585D02*
X9316491Y-11534061D01*
X9316491Y-11534061D02*
X9306967Y-11515013D01*
X9306967Y-11515013D02*
X9297444Y-11476918D01*
X9297444Y-11476918D02*
X9297444Y-11429299D01*
X9297444Y-11429299D02*
X9306967Y-11391204D01*
X9306967Y-11391204D02*
X9316491Y-11372156D01*
X9316491Y-11372156D02*
X9326015Y-11362633D01*
X9326015Y-11362633D02*
X9345063Y-11353109D01*
X9535539Y-11353109D02*
X9554586Y-11353109D01*
X9554586Y-11353109D02*
X9573634Y-11362633D01*
X9573634Y-11362633D02*
X9583158Y-11372156D01*
X9583158Y-11372156D02*
X9592682Y-11391204D01*
X9592682Y-11391204D02*
X9602205Y-11429299D01*
X9602205Y-11429299D02*
X9602205Y-11476918D01*
X9602205Y-11476918D02*
X9592682Y-11515013D01*
X9592682Y-11515013D02*
X9583158Y-11534061D01*
X9583158Y-11534061D02*
X9573634Y-11543585D01*
X9573634Y-11543585D02*
X9554586Y-11553109D01*
X9554586Y-11553109D02*
X9535539Y-11553109D01*
X9535539Y-11553109D02*
X9516491Y-11543585D01*
X9516491Y-11543585D02*
X9506967Y-11534061D01*
X9506967Y-11534061D02*
X9497444Y-11515013D01*
X9497444Y-11515013D02*
X9487920Y-11476918D01*
X9487920Y-11476918D02*
X9487920Y-11429299D01*
X9487920Y-11429299D02*
X9497444Y-11391204D01*
X9497444Y-11391204D02*
X9506967Y-11372156D01*
X9506967Y-11372156D02*
X9516491Y-11362633D01*
X9516491Y-11362633D02*
X9535539Y-11353109D01*
X9687920Y-11553109D02*
X9687920Y-11419775D01*
X9687920Y-11438823D02*
X9697444Y-11429299D01*
X9697444Y-11429299D02*
X9716491Y-11419775D01*
X9716491Y-11419775D02*
X9745063Y-11419775D01*
X9745063Y-11419775D02*
X9764110Y-11429299D01*
X9764110Y-11429299D02*
X9773634Y-11448347D01*
X9773634Y-11448347D02*
X9773634Y-11553109D01*
X9773634Y-11448347D02*
X9783158Y-11429299D01*
X9783158Y-11429299D02*
X9802205Y-11419775D01*
X9802205Y-11419775D02*
X9830777Y-11419775D01*
X9830777Y-11419775D02*
X9849825Y-11429299D01*
X9849825Y-11429299D02*
X9859348Y-11448347D01*
X9859348Y-11448347D02*
X9859348Y-11553109D01*
X9954586Y-11553109D02*
X9954586Y-11419775D01*
X9954586Y-11438823D02*
X9964110Y-11429299D01*
X9964110Y-11429299D02*
X9983158Y-11419775D01*
X9983158Y-11419775D02*
X10011729Y-11419775D01*
X10011729Y-11419775D02*
X10030777Y-11429299D01*
X10030777Y-11429299D02*
X10040301Y-11448347D01*
X10040301Y-11448347D02*
X10040301Y-11553109D01*
X10040301Y-11448347D02*
X10049825Y-11429299D01*
X10049825Y-11429299D02*
X10068872Y-11419775D01*
X10068872Y-11419775D02*
X10097444Y-11419775D01*
X10097444Y-11419775D02*
X10116491Y-11429299D01*
X10116491Y-11429299D02*
X10126015Y-11448347D01*
X10126015Y-11448347D02*
X10126015Y-11553109D01*
X10516491Y-11343585D02*
X10345063Y-11600728D01*
X10773634Y-11353109D02*
X10792682Y-11353109D01*
X10792682Y-11353109D02*
X10811729Y-11362633D01*
X10811729Y-11362633D02*
X10821253Y-11372156D01*
X10821253Y-11372156D02*
X10830777Y-11391204D01*
X10830777Y-11391204D02*
X10840301Y-11429299D01*
X10840301Y-11429299D02*
X10840301Y-11476918D01*
X10840301Y-11476918D02*
X10830777Y-11515013D01*
X10830777Y-11515013D02*
X10821253Y-11534061D01*
X10821253Y-11534061D02*
X10811729Y-11543585D01*
X10811729Y-11543585D02*
X10792682Y-11553109D01*
X10792682Y-11553109D02*
X10773634Y-11553109D01*
X10773634Y-11553109D02*
X10754587Y-11543585D01*
X10754587Y-11543585D02*
X10745063Y-11534061D01*
X10745063Y-11534061D02*
X10735539Y-11515013D01*
X10735539Y-11515013D02*
X10726015Y-11476918D01*
X10726015Y-11476918D02*
X10726015Y-11429299D01*
X10726015Y-11429299D02*
X10735539Y-11391204D01*
X10735539Y-11391204D02*
X10745063Y-11372156D01*
X10745063Y-11372156D02*
X10754587Y-11362633D01*
X10754587Y-11362633D02*
X10773634Y-11353109D01*
X10926015Y-11534061D02*
X10935539Y-11543585D01*
X10935539Y-11543585D02*
X10926015Y-11553109D01*
X10926015Y-11553109D02*
X10916491Y-11543585D01*
X10916491Y-11543585D02*
X10926015Y-11534061D01*
X10926015Y-11534061D02*
X10926015Y-11553109D01*
X11059348Y-11353109D02*
X11078396Y-11353109D01*
X11078396Y-11353109D02*
X11097444Y-11362633D01*
X11097444Y-11362633D02*
X11106968Y-11372156D01*
X11106968Y-11372156D02*
X11116491Y-11391204D01*
X11116491Y-11391204D02*
X11126015Y-11429299D01*
X11126015Y-11429299D02*
X11126015Y-11476918D01*
X11126015Y-11476918D02*
X11116491Y-11515013D01*
X11116491Y-11515013D02*
X11106968Y-11534061D01*
X11106968Y-11534061D02*
X11097444Y-11543585D01*
X11097444Y-11543585D02*
X11078396Y-11553109D01*
X11078396Y-11553109D02*
X11059348Y-11553109D01*
X11059348Y-11553109D02*
X11040301Y-11543585D01*
X11040301Y-11543585D02*
X11030777Y-11534061D01*
X11030777Y-11534061D02*
X11021253Y-11515013D01*
X11021253Y-11515013D02*
X11011729Y-11476918D01*
X11011729Y-11476918D02*
X11011729Y-11429299D01*
X11011729Y-11429299D02*
X11021253Y-11391204D01*
X11021253Y-11391204D02*
X11030777Y-11372156D01*
X11030777Y-11372156D02*
X11040301Y-11362633D01*
X11040301Y-11362633D02*
X11059348Y-11353109D01*
X11306967Y-11353109D02*
X11211729Y-11353109D01*
X11211729Y-11353109D02*
X11202206Y-11448347D01*
X11202206Y-11448347D02*
X11211729Y-11438823D01*
X11211729Y-11438823D02*
X11230777Y-11429299D01*
X11230777Y-11429299D02*
X11278396Y-11429299D01*
X11278396Y-11429299D02*
X11297444Y-11438823D01*
X11297444Y-11438823D02*
X11306967Y-11448347D01*
X11306967Y-11448347D02*
X11316491Y-11467394D01*
X11316491Y-11467394D02*
X11316491Y-11515013D01*
X11316491Y-11515013D02*
X11306967Y-11534061D01*
X11306967Y-11534061D02*
X11297444Y-11543585D01*
X11297444Y-11543585D02*
X11278396Y-11553109D01*
X11278396Y-11553109D02*
X11230777Y-11553109D01*
X11230777Y-11553109D02*
X11211729Y-11543585D01*
X11211729Y-11543585D02*
X11202206Y-11534061D01*
X11411729Y-11553109D02*
X11449825Y-11553109D01*
X11449825Y-11553109D02*
X11468872Y-11543585D01*
X11468872Y-11543585D02*
X11478396Y-11534061D01*
X11478396Y-11534061D02*
X11497444Y-11505490D01*
X11497444Y-11505490D02*
X11506967Y-11467394D01*
X11506967Y-11467394D02*
X11506967Y-11391204D01*
X11506967Y-11391204D02*
X11497444Y-11372156D01*
X11497444Y-11372156D02*
X11487920Y-11362633D01*
X11487920Y-11362633D02*
X11468872Y-11353109D01*
X11468872Y-11353109D02*
X11430777Y-11353109D01*
X11430777Y-11353109D02*
X11411729Y-11362633D01*
X11411729Y-11362633D02*
X11402206Y-11372156D01*
X11402206Y-11372156D02*
X11392682Y-11391204D01*
X11392682Y-11391204D02*
X11392682Y-11438823D01*
X11392682Y-11438823D02*
X11402206Y-11457871D01*
X11402206Y-11457871D02*
X11411729Y-11467394D01*
X11411729Y-11467394D02*
X11430777Y-11476918D01*
X11430777Y-11476918D02*
X11468872Y-11476918D01*
X11468872Y-11476918D02*
X11487920Y-11467394D01*
X11487920Y-11467394D02*
X11497444Y-11457871D01*
X11497444Y-11457871D02*
X11506967Y-11438823D01*
X11697444Y-11553109D02*
X11583158Y-11553109D01*
X11640301Y-11553109D02*
X11640301Y-11353109D01*
X11640301Y-11353109D02*
X11621253Y-11381680D01*
X11621253Y-11381680D02*
X11602206Y-11400728D01*
X11602206Y-11400728D02*
X11583158Y-11410252D01*
X11773634Y-11353109D02*
X11773634Y-11391204D01*
X11849825Y-11353109D02*
X11849825Y-11391204D01*
X12145063Y-11629299D02*
X12135539Y-11619775D01*
X12135539Y-11619775D02*
X12116491Y-11591204D01*
X12116491Y-11591204D02*
X12106968Y-11572156D01*
X12106968Y-11572156D02*
X12097444Y-11543585D01*
X12097444Y-11543585D02*
X12087920Y-11495966D01*
X12087920Y-11495966D02*
X12087920Y-11457871D01*
X12087920Y-11457871D02*
X12097444Y-11410252D01*
X12097444Y-11410252D02*
X12106968Y-11381680D01*
X12106968Y-11381680D02*
X12116491Y-11362633D01*
X12116491Y-11362633D02*
X12135539Y-11334061D01*
X12135539Y-11334061D02*
X12145063Y-11324537D01*
X12326015Y-11553109D02*
X12211729Y-11553109D01*
X12268872Y-11553109D02*
X12268872Y-11353109D01*
X12268872Y-11353109D02*
X12249825Y-11381680D01*
X12249825Y-11381680D02*
X12230777Y-11400728D01*
X12230777Y-11400728D02*
X12211729Y-11410252D01*
X12497444Y-11353109D02*
X12459348Y-11353109D01*
X12459348Y-11353109D02*
X12440301Y-11362633D01*
X12440301Y-11362633D02*
X12430777Y-11372156D01*
X12430777Y-11372156D02*
X12411729Y-11400728D01*
X12411729Y-11400728D02*
X12402206Y-11438823D01*
X12402206Y-11438823D02*
X12402206Y-11515013D01*
X12402206Y-11515013D02*
X12411729Y-11534061D01*
X12411729Y-11534061D02*
X12421253Y-11543585D01*
X12421253Y-11543585D02*
X12440301Y-11553109D01*
X12440301Y-11553109D02*
X12478396Y-11553109D01*
X12478396Y-11553109D02*
X12497444Y-11543585D01*
X12497444Y-11543585D02*
X12506968Y-11534061D01*
X12506968Y-11534061D02*
X12516491Y-11515013D01*
X12516491Y-11515013D02*
X12516491Y-11467394D01*
X12516491Y-11467394D02*
X12506968Y-11448347D01*
X12506968Y-11448347D02*
X12497444Y-11438823D01*
X12497444Y-11438823D02*
X12478396Y-11429299D01*
X12478396Y-11429299D02*
X12440301Y-11429299D01*
X12440301Y-11429299D02*
X12421253Y-11438823D01*
X12421253Y-11438823D02*
X12411729Y-11448347D01*
X12411729Y-11448347D02*
X12402206Y-11467394D01*
X12754587Y-11553109D02*
X12754587Y-11353109D01*
X12840301Y-11553109D02*
X12840301Y-11448347D01*
X12840301Y-11448347D02*
X12830777Y-11429299D01*
X12830777Y-11429299D02*
X12811730Y-11419775D01*
X12811730Y-11419775D02*
X12783158Y-11419775D01*
X12783158Y-11419775D02*
X12764110Y-11429299D01*
X12764110Y-11429299D02*
X12754587Y-11438823D01*
X12964110Y-11553109D02*
X12945063Y-11543585D01*
X12945063Y-11543585D02*
X12935539Y-11534061D01*
X12935539Y-11534061D02*
X12926015Y-11515013D01*
X12926015Y-11515013D02*
X12926015Y-11457871D01*
X12926015Y-11457871D02*
X12935539Y-11438823D01*
X12935539Y-11438823D02*
X12945063Y-11429299D01*
X12945063Y-11429299D02*
X12964110Y-11419775D01*
X12964110Y-11419775D02*
X12992682Y-11419775D01*
X12992682Y-11419775D02*
X13011730Y-11429299D01*
X13011730Y-11429299D02*
X13021253Y-11438823D01*
X13021253Y-11438823D02*
X13030777Y-11457871D01*
X13030777Y-11457871D02*
X13030777Y-11515013D01*
X13030777Y-11515013D02*
X13021253Y-11534061D01*
X13021253Y-11534061D02*
X13011730Y-11543585D01*
X13011730Y-11543585D02*
X12992682Y-11553109D01*
X12992682Y-11553109D02*
X12964110Y-11553109D01*
X13145063Y-11553109D02*
X13126015Y-11543585D01*
X13126015Y-11543585D02*
X13116491Y-11524537D01*
X13116491Y-11524537D02*
X13116491Y-11353109D01*
X13297444Y-11543585D02*
X13278396Y-11553109D01*
X13278396Y-11553109D02*
X13240301Y-11553109D01*
X13240301Y-11553109D02*
X13221253Y-11543585D01*
X13221253Y-11543585D02*
X13211730Y-11524537D01*
X13211730Y-11524537D02*
X13211730Y-11448347D01*
X13211730Y-11448347D02*
X13221253Y-11429299D01*
X13221253Y-11429299D02*
X13240301Y-11419775D01*
X13240301Y-11419775D02*
X13278396Y-11419775D01*
X13278396Y-11419775D02*
X13297444Y-11429299D01*
X13297444Y-11429299D02*
X13306968Y-11448347D01*
X13306968Y-11448347D02*
X13306968Y-11467394D01*
X13306968Y-11467394D02*
X13211730Y-11486442D01*
X13383158Y-11543585D02*
X13402206Y-11553109D01*
X13402206Y-11553109D02*
X13440301Y-11553109D01*
X13440301Y-11553109D02*
X13459349Y-11543585D01*
X13459349Y-11543585D02*
X13468872Y-11524537D01*
X13468872Y-11524537D02*
X13468872Y-11515013D01*
X13468872Y-11515013D02*
X13459349Y-11495966D01*
X13459349Y-11495966D02*
X13440301Y-11486442D01*
X13440301Y-11486442D02*
X13411730Y-11486442D01*
X13411730Y-11486442D02*
X13392682Y-11476918D01*
X13392682Y-11476918D02*
X13383158Y-11457871D01*
X13383158Y-11457871D02*
X13383158Y-11448347D01*
X13383158Y-11448347D02*
X13392682Y-11429299D01*
X13392682Y-11429299D02*
X13411730Y-11419775D01*
X13411730Y-11419775D02*
X13440301Y-11419775D01*
X13440301Y-11419775D02*
X13459349Y-11429299D01*
X13706968Y-11476918D02*
X13859349Y-11476918D01*
X13783158Y-11553109D02*
X13783158Y-11400728D01*
X14097444Y-11372156D02*
X14106968Y-11362633D01*
X14106968Y-11362633D02*
X14126015Y-11353109D01*
X14126015Y-11353109D02*
X14173634Y-11353109D01*
X14173634Y-11353109D02*
X14192682Y-11362633D01*
X14192682Y-11362633D02*
X14202206Y-11372156D01*
X14202206Y-11372156D02*
X14211730Y-11391204D01*
X14211730Y-11391204D02*
X14211730Y-11410252D01*
X14211730Y-11410252D02*
X14202206Y-11438823D01*
X14202206Y-11438823D02*
X14087920Y-11553109D01*
X14087920Y-11553109D02*
X14211730Y-11553109D01*
X14440301Y-11543585D02*
X14459349Y-11553109D01*
X14459349Y-11553109D02*
X14497444Y-11553109D01*
X14497444Y-11553109D02*
X14516492Y-11543585D01*
X14516492Y-11543585D02*
X14526015Y-11524537D01*
X14526015Y-11524537D02*
X14526015Y-11515013D01*
X14526015Y-11515013D02*
X14516492Y-11495966D01*
X14516492Y-11495966D02*
X14497444Y-11486442D01*
X14497444Y-11486442D02*
X14468873Y-11486442D01*
X14468873Y-11486442D02*
X14449825Y-11476918D01*
X14449825Y-11476918D02*
X14440301Y-11457871D01*
X14440301Y-11457871D02*
X14440301Y-11448347D01*
X14440301Y-11448347D02*
X14449825Y-11429299D01*
X14449825Y-11429299D02*
X14468873Y-11419775D01*
X14468873Y-11419775D02*
X14497444Y-11419775D01*
X14497444Y-11419775D02*
X14516492Y-11429299D01*
X14640301Y-11553109D02*
X14621254Y-11543585D01*
X14621254Y-11543585D02*
X14611730Y-11524537D01*
X14611730Y-11524537D02*
X14611730Y-11353109D01*
X14745063Y-11553109D02*
X14726015Y-11543585D01*
X14726015Y-11543585D02*
X14716492Y-11534061D01*
X14716492Y-11534061D02*
X14706968Y-11515013D01*
X14706968Y-11515013D02*
X14706968Y-11457871D01*
X14706968Y-11457871D02*
X14716492Y-11438823D01*
X14716492Y-11438823D02*
X14726015Y-11429299D01*
X14726015Y-11429299D02*
X14745063Y-11419775D01*
X14745063Y-11419775D02*
X14773635Y-11419775D01*
X14773635Y-11419775D02*
X14792682Y-11429299D01*
X14792682Y-11429299D02*
X14802206Y-11438823D01*
X14802206Y-11438823D02*
X14811730Y-11457871D01*
X14811730Y-11457871D02*
X14811730Y-11515013D01*
X14811730Y-11515013D02*
X14802206Y-11534061D01*
X14802206Y-11534061D02*
X14792682Y-11543585D01*
X14792682Y-11543585D02*
X14773635Y-11553109D01*
X14773635Y-11553109D02*
X14745063Y-11553109D01*
X14868873Y-11419775D02*
X14945063Y-11419775D01*
X14897444Y-11353109D02*
X14897444Y-11524537D01*
X14897444Y-11524537D02*
X14906968Y-11543585D01*
X14906968Y-11543585D02*
X14926015Y-11553109D01*
X14926015Y-11553109D02*
X14945063Y-11553109D01*
X15002206Y-11543585D02*
X15021254Y-11553109D01*
X15021254Y-11553109D02*
X15059349Y-11553109D01*
X15059349Y-11553109D02*
X15078396Y-11543585D01*
X15078396Y-11543585D02*
X15087920Y-11524537D01*
X15087920Y-11524537D02*
X15087920Y-11515013D01*
X15087920Y-11515013D02*
X15078396Y-11495966D01*
X15078396Y-11495966D02*
X15059349Y-11486442D01*
X15059349Y-11486442D02*
X15030777Y-11486442D01*
X15030777Y-11486442D02*
X15011730Y-11476918D01*
X15011730Y-11476918D02*
X15002206Y-11457871D01*
X15002206Y-11457871D02*
X15002206Y-11448347D01*
X15002206Y-11448347D02*
X15011730Y-11429299D01*
X15011730Y-11429299D02*
X15030777Y-11419775D01*
X15030777Y-11419775D02*
X15059349Y-11419775D01*
X15059349Y-11419775D02*
X15078396Y-11429299D01*
X15154587Y-11629299D02*
X15164111Y-11619775D01*
X15164111Y-11619775D02*
X15183158Y-11591204D01*
X15183158Y-11591204D02*
X15192682Y-11572156D01*
X15192682Y-11572156D02*
X15202206Y-11543585D01*
X15202206Y-11543585D02*
X15211730Y-11495966D01*
X15211730Y-11495966D02*
X15211730Y-11457871D01*
X15211730Y-11457871D02*
X15202206Y-11410252D01*
X15202206Y-11410252D02*
X15192682Y-11381680D01*
X15192682Y-11381680D02*
X15183158Y-11362633D01*
X15183158Y-11362633D02*
X15164111Y-11334061D01*
X15164111Y-11334061D02*
X15154587Y-11324537D01*
M02*
