G04 #@! TF.GenerationSoftware,KiCad,Pcbnew,9.0.2*
G04 #@! TF.CreationDate,2025-06-25T22:16:46-04:00*
G04 #@! TF.ProjectId,Macropad,4d616372-6f70-4616-942e-6b696361645f,rev?*
G04 #@! TF.SameCoordinates,Original*
G04 #@! TF.FileFunction,Soldermask,Top*
G04 #@! TF.FilePolarity,Negative*
%FSLAX46Y46*%
G04 Gerber Fmt 4.6, Leading zero omitted, Abs format (unit mm)*
G04 Created by KiCad (PCBNEW 9.0.2) date 2025-06-25 22:16:46*
%MOMM*%
%LPD*%
G01*
G04 APERTURE LIST*
G04 Aperture macros list*
%AMRoundRect*
0 Rectangle with rounded corners*
0 $1 Rounding radius*
0 $2 $3 $4 $5 $6 $7 $8 $9 X,Y pos of 4 corners*
0 Add a 4 corners polygon primitive as box body*
4,1,4,$2,$3,$4,$5,$6,$7,$8,$9,$2,$3,0*
0 Add four circle primitives for the rounded corners*
1,1,$1+$1,$2,$3*
1,1,$1+$1,$4,$5*
1,1,$1+$1,$6,$7*
1,1,$1+$1,$8,$9*
0 Add four rect primitives between the rounded corners*
20,1,$1+$1,$2,$3,$4,$5,0*
20,1,$1+$1,$4,$5,$6,$7,0*
20,1,$1+$1,$6,$7,$8,$9,0*
20,1,$1+$1,$8,$9,$2,$3,0*%
G04 Aperture macros list end*
%ADD10RoundRect,0.250000X-0.550000X-0.550000X0.550000X-0.550000X0.550000X0.550000X-0.550000X0.550000X0*%
%ADD11C,1.600000*%
%ADD12C,1.700000*%
%ADD13C,4.000000*%
%ADD14C,2.200000*%
%ADD15C,1.500000*%
%ADD16R,2.000000X2.000000*%
%ADD17C,2.000000*%
%ADD18R,3.200000X2.000000*%
%ADD19RoundRect,0.152400X0.609600X-1.063600X0.609600X1.063600X-0.609600X1.063600X-0.609600X-1.063600X0*%
%ADD20C,1.524000*%
%ADD21RoundRect,0.152400X-0.609600X1.063600X-0.609600X-1.063600X0.609600X-1.063600X0.609600X1.063600X0*%
G04 APERTURE END LIST*
D10*
G04 #@! TO.C,D3*
X87987500Y-75075000D03*
D11*
X95607500Y-75075000D03*
G04 #@! TD*
D10*
G04 #@! TO.C,D4*
X87987500Y-78625000D03*
D11*
X95607500Y-78625000D03*
G04 #@! TD*
D12*
G04 #@! TO.C,SW2*
X99258750Y-88106250D03*
D13*
X104338750Y-88106250D03*
D12*
X109418750Y-88106250D03*
D14*
X106878750Y-83026250D03*
X100528750Y-85566250D03*
G04 #@! TD*
D10*
G04 #@! TO.C,D1*
X87987500Y-67975000D03*
D11*
X95607500Y-67975000D03*
G04 #@! TD*
D12*
G04 #@! TO.C,SW8*
X150235000Y-88106250D03*
D13*
X155315000Y-88106250D03*
D12*
X160395000Y-88106250D03*
D14*
X157855000Y-83026250D03*
X151505000Y-85566250D03*
G04 #@! TD*
D10*
G04 #@! TO.C,D2*
X87987500Y-71525000D03*
D11*
X95607500Y-71525000D03*
G04 #@! TD*
D15*
G04 #@! TO.C,SW9*
X181206250Y-64175000D03*
X181206250Y-69175000D03*
D16*
X166706250Y-64175000D03*
D17*
X166706250Y-69175000D03*
X166706250Y-66675000D03*
D18*
X174206250Y-61075000D03*
X174206250Y-72275000D03*
G04 #@! TD*
D12*
G04 #@! TO.C,SW5*
X132913750Y-69215000D03*
D13*
X137993750Y-69215000D03*
D12*
X143073750Y-69215000D03*
D14*
X140533750Y-64135000D03*
X134183750Y-66675000D03*
G04 #@! TD*
D12*
G04 #@! TO.C,SW3*
X116077500Y-69215000D03*
D13*
X121157500Y-69215000D03*
D12*
X126237500Y-69215000D03*
D14*
X123697500Y-64135000D03*
X117347500Y-66675000D03*
G04 #@! TD*
D10*
G04 #@! TO.C,D7*
X87987500Y-89275000D03*
D11*
X95607500Y-89275000D03*
G04 #@! TD*
D12*
G04 #@! TO.C,SW7*
X150235000Y-69215000D03*
D13*
X155315000Y-69215000D03*
D12*
X160395000Y-69215000D03*
D14*
X157855000Y-64135000D03*
X151505000Y-66675000D03*
G04 #@! TD*
D19*
G04 #@! TO.C,U1*
X182816500Y-77270000D03*
D20*
X182816500Y-78105000D03*
D19*
X180276500Y-77270000D03*
D20*
X180276500Y-78105000D03*
D19*
X177736500Y-77270000D03*
D20*
X177736500Y-78105000D03*
D19*
X175196500Y-77270000D03*
D20*
X175196500Y-78105000D03*
D19*
X172656500Y-77270000D03*
D20*
X172656500Y-78105000D03*
D19*
X170116500Y-77270000D03*
D20*
X170116500Y-78105000D03*
D19*
X167576500Y-77270000D03*
D20*
X167576500Y-78105000D03*
X167576500Y-93345000D03*
D21*
X167576500Y-94180000D03*
D20*
X170116500Y-93345000D03*
D21*
X170116500Y-94180000D03*
D20*
X172656500Y-93345000D03*
D21*
X172656500Y-94180000D03*
D20*
X175196500Y-93345000D03*
D21*
X175196500Y-94180000D03*
D20*
X177736500Y-93345000D03*
D21*
X177736500Y-94180000D03*
D20*
X180276500Y-93345000D03*
D21*
X180276500Y-94180000D03*
D20*
X182816500Y-93345000D03*
D21*
X182816500Y-94180000D03*
G04 #@! TD*
D12*
G04 #@! TO.C,SW1*
X99258750Y-69215000D03*
D13*
X104338750Y-69215000D03*
D12*
X109418750Y-69215000D03*
D14*
X106878750Y-64135000D03*
X100528750Y-66675000D03*
G04 #@! TD*
D12*
G04 #@! TO.C,SW4*
X116077500Y-88106250D03*
D13*
X121157500Y-88106250D03*
D12*
X126237500Y-88106250D03*
D14*
X123697500Y-83026250D03*
X117347500Y-85566250D03*
G04 #@! TD*
D12*
G04 #@! TO.C,SW6*
X132913750Y-88106250D03*
D13*
X137993750Y-88106250D03*
D12*
X143073750Y-88106250D03*
D14*
X140533750Y-83026250D03*
X134183750Y-85566250D03*
G04 #@! TD*
D10*
G04 #@! TO.C,D8*
X87987500Y-92825000D03*
D11*
X95607500Y-92825000D03*
G04 #@! TD*
D10*
G04 #@! TO.C,D6*
X87987500Y-85725000D03*
D11*
X95607500Y-85725000D03*
G04 #@! TD*
D10*
G04 #@! TO.C,D5*
X87987500Y-82175000D03*
D11*
X95607500Y-82175000D03*
G04 #@! TD*
M02*
